G75*
%MOIN*%
%OFA0B0*%
%FSLAX25Y25*%
%IPPOS*%
%LPD*%
%AMOC8*
5,1,8,0,0,1.08239X$1,22.5*
%
%ADD10OC8,0.15000*%
%ADD11C,0.01000*%
D10*
X0022200Y0022200D03*
X0022200Y0089700D03*
X0157200Y0089700D03*
X0157200Y0022200D03*
D11*
X0005600Y0005600D02*
X0005600Y0113800D01*
X0163800Y0113800D01*
X0163800Y0097808D01*
X0161508Y0100100D01*
X0152892Y0100100D01*
X0146800Y0094008D01*
X0146800Y0085392D01*
X0152892Y0079300D01*
X0161508Y0079300D01*
X0163800Y0081592D01*
X0163800Y0028328D01*
X0160928Y0031200D01*
X0157700Y0031200D01*
X0157700Y0022700D01*
X0156700Y0022700D01*
X0156700Y0031200D01*
X0153472Y0031200D01*
X0148200Y0025928D01*
X0148200Y0022700D01*
X0156700Y0022700D01*
X0156700Y0021700D01*
X0157700Y0021700D01*
X0157700Y0013200D01*
X0160928Y0013200D01*
X0163800Y0016072D01*
X0163800Y0005600D01*
X0005600Y0005600D01*
X0005600Y0006097D02*
X0163800Y0006097D01*
X0163800Y0007096D02*
X0005600Y0007096D01*
X0005600Y0008094D02*
X0163800Y0008094D01*
X0163800Y0009093D02*
X0005600Y0009093D01*
X0005600Y0010091D02*
X0163800Y0010091D01*
X0163800Y0011090D02*
X0005600Y0011090D01*
X0005600Y0012088D02*
X0163800Y0012088D01*
X0163800Y0013087D02*
X0005600Y0013087D01*
X0005600Y0014085D02*
X0017587Y0014085D01*
X0018472Y0013200D02*
X0021700Y0013200D01*
X0021700Y0021700D01*
X0022700Y0021700D01*
X0022700Y0022700D01*
X0031200Y0022700D01*
X0031200Y0025928D01*
X0025928Y0031200D01*
X0022700Y0031200D01*
X0022700Y0022700D01*
X0021700Y0022700D01*
X0021700Y0031200D01*
X0018472Y0031200D01*
X0013200Y0025928D01*
X0013200Y0022700D01*
X0021700Y0022700D01*
X0021700Y0021700D01*
X0013200Y0021700D01*
X0013200Y0018472D01*
X0018472Y0013200D01*
X0016588Y0015084D02*
X0005600Y0015084D01*
X0005600Y0016082D02*
X0015590Y0016082D01*
X0014591Y0017081D02*
X0005600Y0017081D01*
X0005600Y0018079D02*
X0013593Y0018079D01*
X0013200Y0019078D02*
X0005600Y0019078D01*
X0005600Y0020076D02*
X0013200Y0020076D01*
X0013200Y0021075D02*
X0005600Y0021075D01*
X0005600Y0022073D02*
X0021700Y0022073D01*
X0021700Y0021075D02*
X0022700Y0021075D01*
X0022700Y0021700D02*
X0022700Y0013200D01*
X0025928Y0013200D01*
X0031200Y0018472D01*
X0031200Y0021700D01*
X0022700Y0021700D01*
X0022700Y0022073D02*
X0156700Y0022073D01*
X0156700Y0021700D02*
X0148200Y0021700D01*
X0148200Y0018472D01*
X0153472Y0013200D01*
X0156700Y0013200D01*
X0156700Y0021700D01*
X0156700Y0021075D02*
X0157700Y0021075D01*
X0157700Y0020076D02*
X0156700Y0020076D01*
X0156700Y0019078D02*
X0157700Y0019078D01*
X0157700Y0018079D02*
X0156700Y0018079D01*
X0156700Y0017081D02*
X0157700Y0017081D01*
X0157700Y0016082D02*
X0156700Y0016082D01*
X0156700Y0015084D02*
X0157700Y0015084D01*
X0157700Y0014085D02*
X0156700Y0014085D01*
X0152587Y0014085D02*
X0026813Y0014085D01*
X0027812Y0015084D02*
X0151588Y0015084D01*
X0150590Y0016082D02*
X0028810Y0016082D01*
X0029809Y0017081D02*
X0149591Y0017081D01*
X0148593Y0018079D02*
X0030807Y0018079D01*
X0031200Y0019078D02*
X0148200Y0019078D01*
X0148200Y0020076D02*
X0031200Y0020076D01*
X0031200Y0021075D02*
X0148200Y0021075D01*
X0148200Y0023072D02*
X0031200Y0023072D01*
X0031200Y0024070D02*
X0148200Y0024070D01*
X0148200Y0025069D02*
X0031200Y0025069D01*
X0031060Y0026068D02*
X0148340Y0026068D01*
X0149338Y0027066D02*
X0030062Y0027066D01*
X0029063Y0028065D02*
X0150337Y0028065D01*
X0151335Y0029063D02*
X0028065Y0029063D01*
X0027066Y0030062D02*
X0152334Y0030062D01*
X0153332Y0031060D02*
X0026068Y0031060D01*
X0022700Y0031060D02*
X0021700Y0031060D01*
X0021700Y0030062D02*
X0022700Y0030062D01*
X0022700Y0029063D02*
X0021700Y0029063D01*
X0021700Y0028065D02*
X0022700Y0028065D01*
X0022700Y0027066D02*
X0021700Y0027066D01*
X0021700Y0026068D02*
X0022700Y0026068D01*
X0022700Y0025069D02*
X0021700Y0025069D01*
X0021700Y0024070D02*
X0022700Y0024070D01*
X0022700Y0023072D02*
X0021700Y0023072D01*
X0021700Y0020076D02*
X0022700Y0020076D01*
X0022700Y0019078D02*
X0021700Y0019078D01*
X0021700Y0018079D02*
X0022700Y0018079D01*
X0022700Y0017081D02*
X0021700Y0017081D01*
X0021700Y0016082D02*
X0022700Y0016082D01*
X0022700Y0015084D02*
X0021700Y0015084D01*
X0021700Y0014085D02*
X0022700Y0014085D01*
X0013200Y0023072D02*
X0005600Y0023072D01*
X0005600Y0024070D02*
X0013200Y0024070D01*
X0013200Y0025069D02*
X0005600Y0025069D01*
X0005600Y0026068D02*
X0013340Y0026068D01*
X0014338Y0027066D02*
X0005600Y0027066D01*
X0005600Y0028065D02*
X0015337Y0028065D01*
X0016335Y0029063D02*
X0005600Y0029063D01*
X0005600Y0030062D02*
X0017334Y0030062D01*
X0018332Y0031060D02*
X0005600Y0031060D01*
X0005600Y0032059D02*
X0163800Y0032059D01*
X0163800Y0033057D02*
X0005600Y0033057D01*
X0005600Y0034056D02*
X0163800Y0034056D01*
X0163800Y0035054D02*
X0005600Y0035054D01*
X0005600Y0036053D02*
X0163800Y0036053D01*
X0163800Y0037051D02*
X0005600Y0037051D01*
X0005600Y0038050D02*
X0163800Y0038050D01*
X0163800Y0039048D02*
X0005600Y0039048D01*
X0005600Y0040047D02*
X0163800Y0040047D01*
X0163800Y0041045D02*
X0005600Y0041045D01*
X0005600Y0042044D02*
X0163800Y0042044D01*
X0163800Y0043042D02*
X0005600Y0043042D01*
X0005600Y0044041D02*
X0163800Y0044041D01*
X0163800Y0045039D02*
X0005600Y0045039D01*
X0005600Y0046038D02*
X0163800Y0046038D01*
X0163800Y0047036D02*
X0005600Y0047036D01*
X0005600Y0048035D02*
X0163800Y0048035D01*
X0163800Y0049033D02*
X0005600Y0049033D01*
X0005600Y0050032D02*
X0163800Y0050032D01*
X0163800Y0051030D02*
X0005600Y0051030D01*
X0005600Y0052029D02*
X0163800Y0052029D01*
X0163800Y0053027D02*
X0005600Y0053027D01*
X0005600Y0054026D02*
X0163800Y0054026D01*
X0163800Y0055024D02*
X0005600Y0055024D01*
X0005600Y0056023D02*
X0163800Y0056023D01*
X0163800Y0057021D02*
X0005600Y0057021D01*
X0005600Y0058020D02*
X0163800Y0058020D01*
X0163800Y0059018D02*
X0005600Y0059018D01*
X0005600Y0060017D02*
X0163800Y0060017D01*
X0163800Y0061015D02*
X0005600Y0061015D01*
X0005600Y0062014D02*
X0163800Y0062014D01*
X0163800Y0063012D02*
X0005600Y0063012D01*
X0005600Y0064011D02*
X0163800Y0064011D01*
X0163800Y0065009D02*
X0005600Y0065009D01*
X0005600Y0066008D02*
X0163800Y0066008D01*
X0163800Y0067006D02*
X0005600Y0067006D01*
X0005600Y0068005D02*
X0163800Y0068005D01*
X0163800Y0069003D02*
X0005600Y0069003D01*
X0005600Y0070002D02*
X0163800Y0070002D01*
X0163800Y0071001D02*
X0005600Y0071001D01*
X0005600Y0071999D02*
X0163800Y0071999D01*
X0163800Y0072998D02*
X0005600Y0072998D01*
X0005600Y0073996D02*
X0163800Y0073996D01*
X0163800Y0074995D02*
X0005600Y0074995D01*
X0005600Y0075993D02*
X0163800Y0075993D01*
X0163800Y0076992D02*
X0005600Y0076992D01*
X0005600Y0077990D02*
X0163800Y0077990D01*
X0163800Y0078989D02*
X0005600Y0078989D01*
X0005600Y0079987D02*
X0017205Y0079987D01*
X0017892Y0079300D02*
X0026508Y0079300D01*
X0032600Y0085392D01*
X0032600Y0094008D01*
X0026508Y0100100D01*
X0017892Y0100100D01*
X0011800Y0094008D01*
X0011800Y0085392D01*
X0017892Y0079300D01*
X0016207Y0080986D02*
X0005600Y0080986D01*
X0005600Y0081984D02*
X0015208Y0081984D01*
X0014210Y0082983D02*
X0005600Y0082983D01*
X0005600Y0083981D02*
X0013211Y0083981D01*
X0012212Y0084980D02*
X0005600Y0084980D01*
X0005600Y0085978D02*
X0011800Y0085978D01*
X0011800Y0086977D02*
X0005600Y0086977D01*
X0005600Y0087975D02*
X0011800Y0087975D01*
X0011800Y0088974D02*
X0005600Y0088974D01*
X0005600Y0089972D02*
X0011800Y0089972D01*
X0011800Y0090971D02*
X0005600Y0090971D01*
X0005600Y0091969D02*
X0011800Y0091969D01*
X0011800Y0092968D02*
X0005600Y0092968D01*
X0005600Y0093966D02*
X0011800Y0093966D01*
X0012757Y0094965D02*
X0005600Y0094965D01*
X0005600Y0095963D02*
X0013755Y0095963D01*
X0014754Y0096962D02*
X0005600Y0096962D01*
X0005600Y0097960D02*
X0015753Y0097960D01*
X0016751Y0098959D02*
X0005600Y0098959D01*
X0005600Y0099957D02*
X0017750Y0099957D01*
X0026650Y0099957D02*
X0152750Y0099957D01*
X0151751Y0098959D02*
X0027649Y0098959D01*
X0028647Y0097960D02*
X0150753Y0097960D01*
X0149754Y0096962D02*
X0029646Y0096962D01*
X0030645Y0095963D02*
X0148755Y0095963D01*
X0147757Y0094965D02*
X0031643Y0094965D01*
X0032600Y0093966D02*
X0146800Y0093966D01*
X0146800Y0092968D02*
X0032600Y0092968D01*
X0032600Y0091969D02*
X0146800Y0091969D01*
X0146800Y0090971D02*
X0032600Y0090971D01*
X0032600Y0089972D02*
X0146800Y0089972D01*
X0146800Y0088974D02*
X0032600Y0088974D01*
X0032600Y0087975D02*
X0146800Y0087975D01*
X0146800Y0086977D02*
X0032600Y0086977D01*
X0032600Y0085978D02*
X0146800Y0085978D01*
X0147213Y0084980D02*
X0032187Y0084980D01*
X0031189Y0083981D02*
X0148211Y0083981D01*
X0149210Y0082983D02*
X0030190Y0082983D01*
X0029192Y0081984D02*
X0150208Y0081984D01*
X0151207Y0080986D02*
X0028193Y0080986D01*
X0027195Y0079987D02*
X0152205Y0079987D01*
X0162195Y0079987D02*
X0163800Y0079987D01*
X0163800Y0080986D02*
X0163193Y0080986D01*
X0163647Y0097960D02*
X0163800Y0097960D01*
X0163800Y0098959D02*
X0162649Y0098959D01*
X0161650Y0099957D02*
X0163800Y0099957D01*
X0163800Y0100956D02*
X0005600Y0100956D01*
X0005600Y0101954D02*
X0163800Y0101954D01*
X0163800Y0102953D02*
X0005600Y0102953D01*
X0005600Y0103951D02*
X0163800Y0103951D01*
X0163800Y0104950D02*
X0005600Y0104950D01*
X0005600Y0105948D02*
X0163800Y0105948D01*
X0163800Y0106947D02*
X0005600Y0106947D01*
X0005600Y0107945D02*
X0163800Y0107945D01*
X0163800Y0108944D02*
X0005600Y0108944D01*
X0005600Y0109942D02*
X0163800Y0109942D01*
X0163800Y0110941D02*
X0005600Y0110941D01*
X0005600Y0111939D02*
X0163800Y0111939D01*
X0163800Y0112938D02*
X0005600Y0112938D01*
X0156700Y0031060D02*
X0157700Y0031060D01*
X0157700Y0030062D02*
X0156700Y0030062D01*
X0156700Y0029063D02*
X0157700Y0029063D01*
X0157700Y0028065D02*
X0156700Y0028065D01*
X0156700Y0027066D02*
X0157700Y0027066D01*
X0157700Y0026068D02*
X0156700Y0026068D01*
X0156700Y0025069D02*
X0157700Y0025069D01*
X0157700Y0024070D02*
X0156700Y0024070D01*
X0156700Y0023072D02*
X0157700Y0023072D01*
X0163065Y0029063D02*
X0163800Y0029063D01*
X0163800Y0030062D02*
X0162066Y0030062D01*
X0161068Y0031060D02*
X0163800Y0031060D01*
X0163800Y0015084D02*
X0162812Y0015084D01*
X0163800Y0014085D02*
X0161813Y0014085D01*
M02*
