G75*
%MOIN*%
%OFA0B0*%
%FSLAX25Y25*%
%IPPOS*%
%LPD*%
%AMOC8*
5,1,8,0,0,1.08239X$1,22.5*
%
%ADD10C,0.00400*%
%ADD11C,0.00800*%
%ADD12C,0.00500*%
%ADD13C,0.00600*%
%ADD14C,0.00300*%
D10*
X0086118Y0014000D02*
X0103918Y0014000D01*
X0103918Y0029000D02*
X0086118Y0029000D01*
D11*
X0080876Y0032858D02*
X0080876Y0035142D01*
X0080876Y0032858D02*
X0109120Y0032858D01*
X0109120Y0035142D01*
X0095778Y0025437D02*
X0095778Y0017563D01*
X0091750Y0021500D01*
X0095778Y0025437D01*
X0066620Y0032858D02*
X0066620Y0035142D01*
X0066620Y0032858D02*
X0038376Y0032858D01*
X0038376Y0035142D01*
X0038376Y0047858D02*
X0038376Y0050142D01*
X0066620Y0050142D01*
X0066620Y0047858D01*
X0080876Y0047858D02*
X0080876Y0050142D01*
X0109120Y0050142D01*
X0109120Y0047858D01*
X0130915Y0085358D02*
X0130915Y0087642D01*
X0130915Y0085358D02*
X0159160Y0085358D01*
X0159160Y0087642D01*
X0159160Y0100358D02*
X0159160Y0102642D01*
X0130915Y0102642D01*
X0130915Y0100358D01*
D12*
X0117124Y0106106D02*
X0117124Y0056894D01*
X0070235Y0060673D02*
X0070237Y0060735D01*
X0070243Y0060798D01*
X0070253Y0060859D01*
X0070267Y0060920D01*
X0070284Y0060980D01*
X0070305Y0061039D01*
X0070331Y0061096D01*
X0070359Y0061151D01*
X0070391Y0061205D01*
X0070427Y0061256D01*
X0070465Y0061306D01*
X0070507Y0061352D01*
X0070551Y0061396D01*
X0070599Y0061437D01*
X0070648Y0061475D01*
X0070700Y0061509D01*
X0070754Y0061540D01*
X0070810Y0061568D01*
X0070868Y0061592D01*
X0070927Y0061613D01*
X0070987Y0061629D01*
X0071048Y0061642D01*
X0071110Y0061651D01*
X0071172Y0061656D01*
X0071235Y0061657D01*
X0071297Y0061654D01*
X0071359Y0061647D01*
X0071421Y0061636D01*
X0071481Y0061621D01*
X0071541Y0061603D01*
X0071599Y0061581D01*
X0071656Y0061555D01*
X0071711Y0061525D01*
X0071764Y0061492D01*
X0071815Y0061456D01*
X0071863Y0061417D01*
X0071909Y0061374D01*
X0071952Y0061329D01*
X0071992Y0061281D01*
X0072029Y0061231D01*
X0072063Y0061178D01*
X0072094Y0061124D01*
X0072120Y0061068D01*
X0072144Y0061010D01*
X0072163Y0060950D01*
X0072179Y0060890D01*
X0072191Y0060828D01*
X0072199Y0060767D01*
X0072203Y0060704D01*
X0072203Y0060642D01*
X0072199Y0060579D01*
X0072191Y0060518D01*
X0072179Y0060456D01*
X0072163Y0060396D01*
X0072144Y0060336D01*
X0072120Y0060278D01*
X0072094Y0060222D01*
X0072063Y0060168D01*
X0072029Y0060115D01*
X0071992Y0060065D01*
X0071952Y0060017D01*
X0071909Y0059972D01*
X0071863Y0059929D01*
X0071815Y0059890D01*
X0071764Y0059854D01*
X0071711Y0059821D01*
X0071656Y0059791D01*
X0071599Y0059765D01*
X0071541Y0059743D01*
X0071481Y0059725D01*
X0071421Y0059710D01*
X0071359Y0059699D01*
X0071297Y0059692D01*
X0071235Y0059689D01*
X0071172Y0059690D01*
X0071110Y0059695D01*
X0071048Y0059704D01*
X0070987Y0059717D01*
X0070927Y0059733D01*
X0070868Y0059754D01*
X0070810Y0059778D01*
X0070754Y0059806D01*
X0070700Y0059837D01*
X0070648Y0059871D01*
X0070599Y0059909D01*
X0070551Y0059950D01*
X0070507Y0059994D01*
X0070465Y0060040D01*
X0070427Y0060090D01*
X0070391Y0060141D01*
X0070359Y0060195D01*
X0070331Y0060250D01*
X0070305Y0060307D01*
X0070284Y0060366D01*
X0070267Y0060426D01*
X0070253Y0060487D01*
X0070243Y0060548D01*
X0070237Y0060611D01*
X0070235Y0060673D01*
X0067912Y0056894D02*
X0067912Y0106106D01*
D13*
X0035018Y0016500D02*
X0035018Y0014000D01*
X0037518Y0014000D01*
X0047518Y0014000D02*
X0050018Y0014000D01*
X0050018Y0016500D01*
X0050018Y0026500D02*
X0050018Y0029000D01*
X0047518Y0029000D01*
X0037518Y0029000D02*
X0035018Y0029000D01*
X0035018Y0026500D01*
X0049418Y0063900D02*
X0051618Y0063900D01*
X0049418Y0063900D02*
X0049418Y0067100D01*
X0058418Y0063900D02*
X0060618Y0063900D01*
X0060618Y0067100D01*
X0050018Y0081500D02*
X0047518Y0081500D01*
X0050018Y0081500D02*
X0050018Y0084000D01*
X0037518Y0081500D02*
X0035018Y0081500D01*
X0035018Y0084000D01*
X0035018Y0094000D02*
X0035018Y0096500D01*
X0037518Y0096500D01*
X0047518Y0096500D02*
X0050018Y0096500D01*
X0050018Y0094000D01*
X0151918Y0053900D02*
X0156318Y0053900D01*
X0158718Y0053900D01*
X0163118Y0053900D01*
X0158718Y0053900D02*
X0158716Y0053831D01*
X0158710Y0053763D01*
X0158700Y0053695D01*
X0158687Y0053628D01*
X0158669Y0053562D01*
X0158648Y0053497D01*
X0158623Y0053433D01*
X0158595Y0053371D01*
X0158563Y0053310D01*
X0158528Y0053251D01*
X0158489Y0053195D01*
X0158447Y0053140D01*
X0158402Y0053089D01*
X0158354Y0053039D01*
X0158304Y0052993D01*
X0158251Y0052950D01*
X0158195Y0052909D01*
X0158138Y0052872D01*
X0158078Y0052839D01*
X0158016Y0052808D01*
X0157953Y0052782D01*
X0157889Y0052759D01*
X0157823Y0052739D01*
X0157756Y0052724D01*
X0157689Y0052712D01*
X0157621Y0052704D01*
X0157552Y0052700D01*
X0157484Y0052700D01*
X0157415Y0052704D01*
X0157347Y0052712D01*
X0157280Y0052724D01*
X0157213Y0052739D01*
X0157147Y0052759D01*
X0157083Y0052782D01*
X0157020Y0052808D01*
X0156958Y0052839D01*
X0156898Y0052872D01*
X0156841Y0052909D01*
X0156785Y0052950D01*
X0156732Y0052993D01*
X0156682Y0053039D01*
X0156634Y0053089D01*
X0156589Y0053140D01*
X0156547Y0053195D01*
X0156508Y0053251D01*
X0156473Y0053310D01*
X0156441Y0053371D01*
X0156413Y0053433D01*
X0156388Y0053497D01*
X0156367Y0053562D01*
X0156349Y0053628D01*
X0156336Y0053695D01*
X0156326Y0053763D01*
X0156320Y0053831D01*
X0156318Y0053900D01*
X0151918Y0034100D02*
X0163118Y0034100D01*
X0170018Y0029000D02*
X0172518Y0029000D01*
X0170018Y0029000D02*
X0170018Y0026500D01*
X0182518Y0029000D02*
X0185018Y0029000D01*
X0185018Y0026500D01*
X0185018Y0016500D02*
X0185018Y0014000D01*
X0182518Y0014000D01*
X0172518Y0014000D02*
X0170018Y0014000D01*
X0170018Y0016500D01*
X0170018Y0081500D02*
X0170018Y0084000D01*
X0170018Y0081500D02*
X0172518Y0081500D01*
X0182518Y0081500D02*
X0185018Y0081500D01*
X0185018Y0084000D01*
X0185018Y0094000D02*
X0185018Y0096500D01*
X0182518Y0096500D01*
X0172518Y0096500D02*
X0170018Y0096500D01*
X0170018Y0094000D01*
D14*
X0147804Y0057170D02*
X0144668Y0054034D01*
X0146236Y0054034D02*
X0146236Y0057170D01*
X0144668Y0057170D02*
X0147804Y0054034D01*
X0147804Y0055602D02*
X0144668Y0055602D01*
M02*
