G75*
%MOIN*%
%OFA0B0*%
%FSLAX25Y25*%
%IPPOS*%
%LPD*%
%AMOC8*
5,1,8,0,0,1.08239X$1,22.5*
%
%ADD10C,0.01000*%
%ADD11R,0.09449X0.09449*%
%ADD12R,0.09843X0.15157*%
%ADD13R,0.07800X0.02100*%
%ADD14R,0.10236X0.09449*%
%ADD15R,0.02756X0.03543*%
%ADD16R,0.06299X0.07087*%
%ADD17OC8,0.15000*%
%ADD18R,0.03937X0.05512*%
%ADD19C,0.02400*%
%ADD20C,0.01587*%
%ADD21C,0.01600*%
%ADD22C,0.05000*%
D10*
X0022518Y0001500D02*
X0022518Y0116500D01*
X0187518Y0116500D01*
X0187518Y0001500D01*
X0022518Y0001500D01*
X0025118Y0004100D02*
X0025118Y0113900D01*
X0184918Y0113900D01*
X0184918Y0101037D01*
X0167491Y0101037D01*
X0167447Y0100993D01*
X0167006Y0101434D01*
X0166419Y0101434D01*
X0166419Y0103477D01*
X0165189Y0104707D01*
X0160267Y0104707D01*
X0160267Y0107187D01*
X0159764Y0108400D01*
X0158836Y0109328D01*
X0157623Y0109831D01*
X0105051Y0109831D01*
X0104214Y0110667D01*
X0092632Y0110667D01*
X0091969Y0110003D01*
X0091731Y0110067D01*
X0087112Y0110067D01*
X0087112Y0101488D01*
X0086112Y0101488D01*
X0086112Y0100488D01*
X0080191Y0100488D01*
X0080191Y0093212D01*
X0080293Y0092830D01*
X0080491Y0092488D01*
X0080770Y0092209D01*
X0081112Y0092012D01*
X0081494Y0091909D01*
X0086112Y0091909D01*
X0086112Y0100488D01*
X0087112Y0100488D01*
X0087112Y0091909D01*
X0088583Y0091909D01*
X0088583Y0085495D01*
X0089814Y0084265D01*
X0092895Y0084265D01*
X0093230Y0083930D01*
X0109209Y0083930D01*
X0110439Y0085160D01*
X0110439Y0094722D01*
X0110233Y0094927D01*
X0110233Y0103231D01*
X0148043Y0103231D01*
X0147441Y0102628D01*
X0147441Y0098464D01*
X0147562Y0098343D01*
X0147562Y0086097D01*
X0148792Y0084867D01*
X0151941Y0084867D01*
X0152063Y0084745D01*
X0161656Y0084745D01*
X0161656Y0082660D01*
X0162886Y0081430D01*
X0166480Y0081430D01*
X0167216Y0080694D01*
X0169930Y0080694D01*
X0169930Y0079530D01*
X0171160Y0078300D01*
X0172917Y0078300D01*
X0173746Y0077471D01*
X0179218Y0077471D01*
X0179218Y0042867D01*
X0177051Y0040700D01*
X0176091Y0041659D01*
X0172618Y0041659D01*
X0172618Y0042747D01*
X0172516Y0043129D01*
X0172318Y0043471D01*
X0172039Y0043750D01*
X0171697Y0043948D01*
X0171502Y0044000D01*
X0171697Y0044052D01*
X0172039Y0044250D01*
X0172318Y0044529D01*
X0172516Y0044871D01*
X0172618Y0045253D01*
X0172618Y0046475D01*
X0169976Y0046475D01*
X0170026Y0046525D01*
X0172618Y0046525D01*
X0172618Y0046753D01*
X0173965Y0046753D01*
X0175195Y0047983D01*
X0175195Y0053155D01*
X0175074Y0053276D01*
X0175074Y0056466D01*
X0173844Y0057696D01*
X0164759Y0057696D01*
X0164759Y0059197D01*
X0165787Y0059197D01*
X0167017Y0060427D01*
X0167017Y0071894D01*
X0167021Y0071898D01*
X0167021Y0078679D01*
X0165791Y0079909D01*
X0162960Y0079909D01*
X0162959Y0079910D01*
X0158475Y0079910D01*
X0158129Y0079564D01*
X0157955Y0079564D01*
X0136767Y0079611D01*
X0136176Y0079636D01*
X0136113Y0079613D01*
X0136045Y0079613D01*
X0135499Y0079388D01*
X0134944Y0079185D01*
X0134894Y0079139D01*
X0134831Y0079113D01*
X0134412Y0078696D01*
X0130756Y0075334D01*
X0130687Y0075305D01*
X0130462Y0075080D01*
X0128239Y0075080D01*
X0127009Y0073850D01*
X0127009Y0069772D01*
X0125883Y0069772D01*
X0125502Y0069669D01*
X0125160Y0069472D01*
X0124880Y0069193D01*
X0124683Y0068851D01*
X0124581Y0068469D01*
X0124581Y0066689D01*
X0127270Y0066689D01*
X0127270Y0066311D01*
X0127648Y0066311D01*
X0127648Y0063228D01*
X0128583Y0063228D01*
X0128583Y0054772D01*
X0127648Y0054772D01*
X0127648Y0051689D01*
X0127270Y0051689D01*
X0127270Y0054772D01*
X0125883Y0054772D01*
X0125502Y0054669D01*
X0125160Y0054472D01*
X0124880Y0054193D01*
X0124683Y0053851D01*
X0124581Y0053469D01*
X0124581Y0051689D01*
X0127270Y0051689D01*
X0127270Y0051311D01*
X0127648Y0051311D01*
X0127648Y0048228D01*
X0128302Y0048228D01*
X0128302Y0044388D01*
X0129532Y0043158D01*
X0129633Y0043158D01*
X0129218Y0042156D01*
X0129218Y0037222D01*
X0129034Y0037272D01*
X0127648Y0037272D01*
X0127648Y0034189D01*
X0127270Y0034189D01*
X0127270Y0037272D01*
X0125883Y0037272D01*
X0125502Y0037169D01*
X0125160Y0036972D01*
X0124880Y0036693D01*
X0124683Y0036351D01*
X0121428Y0036351D01*
X0121428Y0035353D02*
X0124581Y0035353D01*
X0124581Y0035969D02*
X0124581Y0034189D01*
X0127270Y0034189D01*
X0127270Y0033811D01*
X0127648Y0033811D01*
X0127648Y0030728D01*
X0129034Y0030728D01*
X0129218Y0030778D01*
X0129218Y0029677D01*
X0122023Y0029677D01*
X0121428Y0029082D01*
X0121428Y0077983D01*
X0120926Y0079196D01*
X0119997Y0080124D01*
X0118784Y0080627D01*
X0079539Y0080627D01*
X0078326Y0080124D01*
X0072420Y0074219D01*
X0071492Y0073291D01*
X0070989Y0072078D01*
X0070989Y0047520D01*
X0070813Y0047622D01*
X0070432Y0047724D01*
X0065616Y0047724D01*
X0065616Y0042000D01*
X0064616Y0042000D01*
X0064616Y0041000D01*
X0058498Y0041000D01*
X0058498Y0036578D01*
X0058600Y0036197D01*
X0058798Y0035855D01*
X0059077Y0035575D01*
X0059419Y0035378D01*
X0059801Y0035276D01*
X0064616Y0035276D01*
X0064616Y0041000D01*
X0065616Y0041000D01*
X0065616Y0035276D01*
X0070432Y0035276D01*
X0070813Y0035378D01*
X0070989Y0035480D01*
X0070989Y0022458D01*
X0071492Y0021245D01*
X0072006Y0020731D01*
X0072006Y0017158D01*
X0072044Y0017120D01*
X0072044Y0014603D01*
X0048349Y0014603D01*
X0051518Y0017772D01*
X0051518Y0021000D01*
X0043018Y0021000D01*
X0043018Y0022000D01*
X0051518Y0022000D01*
X0051518Y0025228D01*
X0046246Y0030500D01*
X0045824Y0030500D01*
X0046860Y0031536D01*
X0046860Y0033943D01*
X0047931Y0033943D01*
X0049161Y0035173D01*
X0049161Y0048068D01*
X0047931Y0049298D01*
X0045818Y0049298D01*
X0045818Y0055833D01*
X0049156Y0055833D01*
X0049211Y0055889D01*
X0051521Y0055889D01*
X0052491Y0054919D01*
X0058712Y0054919D01*
X0059942Y0056149D01*
X0059942Y0056859D01*
X0060166Y0056859D01*
X0061396Y0058089D01*
X0061396Y0065406D01*
X0061154Y0065648D01*
X0061154Y0066636D01*
X0061305Y0066677D01*
X0061647Y0066875D01*
X0061927Y0067154D01*
X0062124Y0067496D01*
X0062226Y0067877D01*
X0062226Y0070346D01*
X0059242Y0070346D01*
X0059242Y0071315D01*
X0058489Y0071315D01*
X0058489Y0073044D01*
X0058298Y0073235D01*
X0058383Y0073319D01*
X0058383Y0077364D01*
X0057153Y0078594D01*
X0054263Y0078594D01*
X0054263Y0098472D01*
X0053900Y0098836D01*
X0053900Y0101626D01*
X0052670Y0102856D01*
X0034330Y0102856D01*
X0034088Y0102614D01*
X0031422Y0102614D01*
X0030192Y0101384D01*
X0030192Y0075260D01*
X0031422Y0074030D01*
X0039218Y0074030D01*
X0039218Y0072156D01*
X0039218Y0071501D01*
X0039218Y0051359D01*
X0034078Y0051359D01*
X0033715Y0050995D01*
X0027174Y0050995D01*
X0025944Y0049765D01*
X0025944Y0042448D01*
X0026726Y0041666D01*
X0026676Y0041548D01*
X0026676Y0041539D01*
X0026673Y0041531D01*
X0026673Y0040883D01*
X0026670Y0040235D01*
X0026673Y0040227D01*
X0026673Y0017596D01*
X0026609Y0017289D01*
X0026673Y0016946D01*
X0026673Y0016596D01*
X0026793Y0016307D01*
X0026851Y0015999D01*
X0027042Y0015706D01*
X0027175Y0015384D01*
X0027397Y0015162D01*
X0030925Y0009757D01*
X0031059Y0009434D01*
X0031280Y0009212D01*
X0031452Y0008950D01*
X0031740Y0008753D01*
X0031987Y0008506D01*
X0032277Y0008386D01*
X0032535Y0008209D01*
X0032877Y0008137D01*
X0033200Y0008003D01*
X0033513Y0008003D01*
X0033820Y0007939D01*
X0034163Y0008003D01*
X0076914Y0008003D01*
X0077201Y0008122D01*
X0078042Y0007281D01*
X0094912Y0007281D01*
X0096087Y0008456D01*
X0150387Y0008456D01*
X0150578Y0008402D01*
X0151038Y0008456D01*
X0151501Y0008456D01*
X0151685Y0008532D01*
X0151882Y0008555D01*
X0152286Y0008781D01*
X0152714Y0008958D01*
X0152854Y0009099D01*
X0155846Y0010771D01*
X0156887Y0011202D01*
X0157815Y0012131D01*
X0158318Y0013344D01*
X0158318Y0013744D01*
X0158334Y0013801D01*
X0158318Y0013939D01*
X0158318Y0045133D01*
X0159648Y0046463D01*
X0161818Y0046463D01*
X0161818Y0045253D01*
X0161920Y0044871D01*
X0162118Y0044529D01*
X0162397Y0044250D01*
X0162739Y0044052D01*
X0162934Y0044000D01*
X0162739Y0043948D01*
X0162397Y0043750D01*
X0162118Y0043471D01*
X0161920Y0043129D01*
X0161818Y0042747D01*
X0161818Y0041525D01*
X0162193Y0041525D01*
X0162143Y0041475D01*
X0161818Y0041475D01*
X0161818Y0041149D01*
X0161098Y0040429D01*
X0161098Y0037376D01*
X0161218Y0037256D01*
X0161218Y0035547D01*
X0161008Y0035337D01*
X0161008Y0031778D01*
X0162238Y0030548D01*
X0172215Y0030548D01*
X0173445Y0031778D01*
X0173445Y0033200D01*
X0178174Y0033200D01*
X0179387Y0033702D01*
X0180315Y0034631D01*
X0184387Y0038702D01*
X0184918Y0039233D01*
X0184918Y0026828D01*
X0181246Y0030500D01*
X0178018Y0030500D01*
X0178018Y0022000D01*
X0177018Y0022000D01*
X0177018Y0030500D01*
X0173790Y0030500D01*
X0168518Y0025228D01*
X0168518Y0022000D01*
X0177018Y0022000D01*
X0177018Y0021000D01*
X0178018Y0021000D01*
X0178018Y0012500D01*
X0181246Y0012500D01*
X0184918Y0016172D01*
X0184918Y0004100D01*
X0025118Y0004100D01*
X0025118Y0004399D02*
X0184918Y0004399D01*
X0184918Y0005397D02*
X0025118Y0005397D01*
X0025118Y0006396D02*
X0184918Y0006396D01*
X0184918Y0007394D02*
X0095026Y0007394D01*
X0096024Y0008393D02*
X0184918Y0008393D01*
X0184918Y0009391D02*
X0153378Y0009391D01*
X0155164Y0010390D02*
X0184918Y0010390D01*
X0184918Y0011388D02*
X0157073Y0011388D01*
X0157921Y0012387D02*
X0184918Y0012387D01*
X0184918Y0013385D02*
X0182131Y0013385D01*
X0183130Y0014384D02*
X0184918Y0014384D01*
X0184918Y0015382D02*
X0184128Y0015382D01*
X0178018Y0015382D02*
X0177018Y0015382D01*
X0177018Y0014384D02*
X0178018Y0014384D01*
X0178018Y0013385D02*
X0177018Y0013385D01*
X0177018Y0012500D02*
X0177018Y0021000D01*
X0168518Y0021000D01*
X0168518Y0017772D01*
X0173790Y0012500D01*
X0177018Y0012500D01*
X0172905Y0013385D02*
X0158318Y0013385D01*
X0158318Y0014384D02*
X0171906Y0014384D01*
X0170907Y0015382D02*
X0158318Y0015382D01*
X0158318Y0016381D02*
X0169909Y0016381D01*
X0168910Y0017379D02*
X0158318Y0017379D01*
X0158318Y0018378D02*
X0168518Y0018378D01*
X0168518Y0019376D02*
X0158318Y0019376D01*
X0158318Y0020375D02*
X0168518Y0020375D01*
X0168518Y0022372D02*
X0158318Y0022372D01*
X0158318Y0023370D02*
X0168518Y0023370D01*
X0168518Y0024369D02*
X0158318Y0024369D01*
X0158318Y0025368D02*
X0168657Y0025368D01*
X0169656Y0026366D02*
X0158318Y0026366D01*
X0158318Y0027365D02*
X0170654Y0027365D01*
X0171653Y0028363D02*
X0158318Y0028363D01*
X0158318Y0029362D02*
X0172651Y0029362D01*
X0173650Y0030360D02*
X0158318Y0030360D01*
X0158318Y0031359D02*
X0161427Y0031359D01*
X0161008Y0032357D02*
X0158318Y0032357D01*
X0158318Y0033356D02*
X0161008Y0033356D01*
X0161008Y0034354D02*
X0158318Y0034354D01*
X0158318Y0035353D02*
X0161023Y0035353D01*
X0161218Y0036351D02*
X0158318Y0036351D01*
X0158318Y0037350D02*
X0161124Y0037350D01*
X0161098Y0038348D02*
X0158318Y0038348D01*
X0158318Y0039347D02*
X0161098Y0039347D01*
X0161098Y0040345D02*
X0158318Y0040345D01*
X0158318Y0041344D02*
X0161818Y0041344D01*
X0161818Y0042342D02*
X0158318Y0042342D01*
X0158318Y0043341D02*
X0162042Y0043341D01*
X0162307Y0044339D02*
X0158318Y0044339D01*
X0158522Y0045338D02*
X0161818Y0045338D01*
X0161818Y0046336D02*
X0159521Y0046336D01*
X0167193Y0046336D02*
X0167243Y0046336D01*
X0167243Y0046463D02*
X0167243Y0043950D01*
X0167243Y0041659D01*
X0167193Y0041659D01*
X0167193Y0046463D01*
X0167243Y0046463D01*
X0167243Y0045338D02*
X0167193Y0045338D01*
X0167193Y0044339D02*
X0167243Y0044339D01*
X0167243Y0043341D02*
X0167193Y0043341D01*
X0167193Y0042342D02*
X0167243Y0042342D01*
X0172393Y0043341D02*
X0179218Y0043341D01*
X0179218Y0044339D02*
X0172128Y0044339D01*
X0172618Y0045338D02*
X0179218Y0045338D01*
X0179218Y0046336D02*
X0172618Y0046336D01*
X0174547Y0047335D02*
X0179218Y0047335D01*
X0179218Y0048333D02*
X0175195Y0048333D01*
X0175195Y0049332D02*
X0179218Y0049332D01*
X0179218Y0050330D02*
X0175195Y0050330D01*
X0175195Y0051329D02*
X0179218Y0051329D01*
X0179218Y0052327D02*
X0175195Y0052327D01*
X0175074Y0053326D02*
X0179218Y0053326D01*
X0179218Y0054324D02*
X0175074Y0054324D01*
X0175074Y0055323D02*
X0179218Y0055323D01*
X0179218Y0056321D02*
X0175074Y0056321D01*
X0174220Y0057320D02*
X0179218Y0057320D01*
X0179218Y0058318D02*
X0164759Y0058318D01*
X0165907Y0059317D02*
X0179218Y0059317D01*
X0179218Y0060315D02*
X0166905Y0060315D01*
X0167017Y0061314D02*
X0179218Y0061314D01*
X0179218Y0062312D02*
X0167017Y0062312D01*
X0167017Y0063311D02*
X0179218Y0063311D01*
X0179218Y0064309D02*
X0167017Y0064309D01*
X0167017Y0065308D02*
X0179218Y0065308D01*
X0179218Y0066306D02*
X0167017Y0066306D01*
X0167017Y0067305D02*
X0179218Y0067305D01*
X0179218Y0068303D02*
X0167017Y0068303D01*
X0167017Y0069302D02*
X0179218Y0069302D01*
X0179218Y0070301D02*
X0167017Y0070301D01*
X0167017Y0071299D02*
X0179218Y0071299D01*
X0179218Y0072298D02*
X0167021Y0072298D01*
X0167021Y0073296D02*
X0179218Y0073296D01*
X0179218Y0074295D02*
X0167021Y0074295D01*
X0167021Y0075293D02*
X0179218Y0075293D01*
X0179218Y0076292D02*
X0167021Y0076292D01*
X0167021Y0077290D02*
X0179218Y0077290D01*
X0172928Y0078289D02*
X0167021Y0078289D01*
X0166413Y0079287D02*
X0170172Y0079287D01*
X0169930Y0080286D02*
X0119608Y0080286D01*
X0120835Y0079287D02*
X0135223Y0079287D01*
X0133969Y0078289D02*
X0121302Y0078289D01*
X0121428Y0077290D02*
X0132883Y0077290D01*
X0131797Y0076292D02*
X0121428Y0076292D01*
X0121428Y0075293D02*
X0130674Y0075293D01*
X0127454Y0074295D02*
X0121428Y0074295D01*
X0121428Y0073296D02*
X0127009Y0073296D01*
X0127009Y0072298D02*
X0121428Y0072298D01*
X0121428Y0071299D02*
X0127009Y0071299D01*
X0127009Y0070301D02*
X0121428Y0070301D01*
X0121428Y0069302D02*
X0124990Y0069302D01*
X0124581Y0068303D02*
X0121428Y0068303D01*
X0121428Y0067305D02*
X0124581Y0067305D01*
X0124581Y0066311D02*
X0124581Y0064531D01*
X0124683Y0064149D01*
X0124880Y0063807D01*
X0125160Y0063528D01*
X0125502Y0063331D01*
X0125883Y0063228D01*
X0127270Y0063228D01*
X0127270Y0066311D01*
X0124581Y0066311D01*
X0124581Y0066306D02*
X0121428Y0066306D01*
X0121428Y0065308D02*
X0124581Y0065308D01*
X0124640Y0064309D02*
X0121428Y0064309D01*
X0121428Y0063311D02*
X0125575Y0063311D01*
X0127270Y0063311D02*
X0127648Y0063311D01*
X0127648Y0064309D02*
X0127270Y0064309D01*
X0127270Y0065308D02*
X0127648Y0065308D01*
X0127648Y0066306D02*
X0127270Y0066306D01*
X0128583Y0062312D02*
X0121428Y0062312D01*
X0121428Y0061314D02*
X0128583Y0061314D01*
X0128583Y0060315D02*
X0121428Y0060315D01*
X0121428Y0059317D02*
X0128583Y0059317D01*
X0128583Y0058318D02*
X0121428Y0058318D01*
X0121428Y0057320D02*
X0128583Y0057320D01*
X0128583Y0056321D02*
X0121428Y0056321D01*
X0121428Y0055323D02*
X0128583Y0055323D01*
X0127648Y0054324D02*
X0127270Y0054324D01*
X0127270Y0053326D02*
X0127648Y0053326D01*
X0127648Y0052327D02*
X0127270Y0052327D01*
X0127270Y0051329D02*
X0121428Y0051329D01*
X0121428Y0052327D02*
X0124581Y0052327D01*
X0124581Y0053326D02*
X0121428Y0053326D01*
X0121428Y0054324D02*
X0125012Y0054324D01*
X0124581Y0051311D02*
X0124581Y0049531D01*
X0124683Y0049149D01*
X0124880Y0048807D01*
X0125160Y0048528D01*
X0125502Y0048331D01*
X0125883Y0048228D01*
X0127270Y0048228D01*
X0127270Y0051311D01*
X0124581Y0051311D01*
X0124581Y0050330D02*
X0121428Y0050330D01*
X0121428Y0049332D02*
X0124634Y0049332D01*
X0125497Y0048333D02*
X0121428Y0048333D01*
X0121428Y0047335D02*
X0128302Y0047335D01*
X0128302Y0046336D02*
X0121428Y0046336D01*
X0121428Y0045338D02*
X0128302Y0045338D01*
X0128350Y0044339D02*
X0121428Y0044339D01*
X0121428Y0043341D02*
X0129349Y0043341D01*
X0129295Y0042342D02*
X0121428Y0042342D01*
X0121428Y0041344D02*
X0129218Y0041344D01*
X0129218Y0040345D02*
X0121428Y0040345D01*
X0121428Y0039347D02*
X0129218Y0039347D01*
X0129218Y0038348D02*
X0121428Y0038348D01*
X0121428Y0037350D02*
X0129218Y0037350D01*
X0127648Y0036351D02*
X0127270Y0036351D01*
X0127270Y0035353D02*
X0127648Y0035353D01*
X0127648Y0034354D02*
X0127270Y0034354D01*
X0127270Y0033811D02*
X0124581Y0033811D01*
X0124581Y0032031D01*
X0124683Y0031649D01*
X0124880Y0031307D01*
X0125160Y0031028D01*
X0125502Y0030831D01*
X0125883Y0030728D01*
X0127270Y0030728D01*
X0127270Y0033811D01*
X0127270Y0033356D02*
X0127648Y0033356D01*
X0127648Y0032357D02*
X0127270Y0032357D01*
X0127270Y0031359D02*
X0127648Y0031359D01*
X0129218Y0030360D02*
X0121428Y0030360D01*
X0121428Y0029362D02*
X0121708Y0029362D01*
X0121428Y0031359D02*
X0124851Y0031359D01*
X0124581Y0032357D02*
X0121428Y0032357D01*
X0121428Y0033356D02*
X0124581Y0033356D01*
X0124581Y0034354D02*
X0121428Y0034354D01*
X0124581Y0035969D02*
X0124683Y0036351D01*
X0127270Y0048333D02*
X0127648Y0048333D01*
X0127648Y0049332D02*
X0127270Y0049332D01*
X0127270Y0050330D02*
X0127648Y0050330D01*
X0172618Y0042342D02*
X0178693Y0042342D01*
X0177695Y0041344D02*
X0176406Y0041344D01*
X0184033Y0038348D02*
X0184918Y0038348D01*
X0184918Y0037350D02*
X0183034Y0037350D01*
X0182036Y0036351D02*
X0184918Y0036351D01*
X0184918Y0035353D02*
X0181037Y0035353D01*
X0180039Y0034354D02*
X0184918Y0034354D01*
X0184918Y0033356D02*
X0178550Y0033356D01*
X0173445Y0032357D02*
X0184918Y0032357D01*
X0184918Y0031359D02*
X0173025Y0031359D01*
X0177018Y0030360D02*
X0178018Y0030360D01*
X0178018Y0029362D02*
X0177018Y0029362D01*
X0177018Y0028363D02*
X0178018Y0028363D01*
X0178018Y0027365D02*
X0177018Y0027365D01*
X0177018Y0026366D02*
X0178018Y0026366D01*
X0178018Y0025368D02*
X0177018Y0025368D01*
X0177018Y0024369D02*
X0178018Y0024369D01*
X0178018Y0023370D02*
X0177018Y0023370D01*
X0177018Y0022372D02*
X0178018Y0022372D01*
X0177018Y0021373D02*
X0158318Y0021373D01*
X0177018Y0020375D02*
X0178018Y0020375D01*
X0178018Y0019376D02*
X0177018Y0019376D01*
X0177018Y0018378D02*
X0178018Y0018378D01*
X0178018Y0017379D02*
X0177018Y0017379D01*
X0177018Y0016381D02*
X0178018Y0016381D01*
X0184381Y0027365D02*
X0184918Y0027365D01*
X0184918Y0028363D02*
X0183383Y0028363D01*
X0182384Y0029362D02*
X0184918Y0029362D01*
X0184918Y0030360D02*
X0181386Y0030360D01*
X0166626Y0081284D02*
X0054263Y0081284D01*
X0054263Y0080286D02*
X0078715Y0080286D01*
X0077488Y0079287D02*
X0054263Y0079287D01*
X0054263Y0082283D02*
X0162034Y0082283D01*
X0161656Y0083281D02*
X0054263Y0083281D01*
X0054263Y0084280D02*
X0089799Y0084280D01*
X0088800Y0085278D02*
X0054263Y0085278D01*
X0054263Y0086277D02*
X0088583Y0086277D01*
X0088583Y0087275D02*
X0054263Y0087275D01*
X0054263Y0088274D02*
X0088583Y0088274D01*
X0088583Y0089272D02*
X0054263Y0089272D01*
X0054263Y0090271D02*
X0088583Y0090271D01*
X0088583Y0091269D02*
X0054263Y0091269D01*
X0054263Y0092268D02*
X0080711Y0092268D01*
X0080191Y0093266D02*
X0054263Y0093266D01*
X0054263Y0094265D02*
X0080191Y0094265D01*
X0080191Y0095263D02*
X0054263Y0095263D01*
X0054263Y0096262D02*
X0080191Y0096262D01*
X0080191Y0097260D02*
X0054263Y0097260D01*
X0054263Y0098259D02*
X0080191Y0098259D01*
X0080191Y0099257D02*
X0053900Y0099257D01*
X0053900Y0100256D02*
X0080191Y0100256D01*
X0080191Y0101488D02*
X0086112Y0101488D01*
X0086112Y0110067D01*
X0081494Y0110067D01*
X0081112Y0109965D01*
X0080770Y0109767D01*
X0080491Y0109488D01*
X0080293Y0109146D01*
X0080191Y0108764D01*
X0080191Y0101488D01*
X0080191Y0102253D02*
X0053273Y0102253D01*
X0053900Y0101254D02*
X0086112Y0101254D01*
X0086112Y0100256D02*
X0087112Y0100256D01*
X0087112Y0099257D02*
X0086112Y0099257D01*
X0086112Y0098259D02*
X0087112Y0098259D01*
X0087112Y0097260D02*
X0086112Y0097260D01*
X0086112Y0096262D02*
X0087112Y0096262D01*
X0087112Y0095263D02*
X0086112Y0095263D01*
X0086112Y0094265D02*
X0087112Y0094265D01*
X0087112Y0093266D02*
X0086112Y0093266D01*
X0086112Y0092268D02*
X0087112Y0092268D01*
X0087112Y0102253D02*
X0086112Y0102253D01*
X0086112Y0103251D02*
X0087112Y0103251D01*
X0087112Y0104250D02*
X0086112Y0104250D01*
X0086112Y0105248D02*
X0087112Y0105248D01*
X0087112Y0106247D02*
X0086112Y0106247D01*
X0086112Y0107245D02*
X0087112Y0107245D01*
X0087112Y0108244D02*
X0086112Y0108244D01*
X0086112Y0109242D02*
X0087112Y0109242D01*
X0092206Y0110241D02*
X0025118Y0110241D01*
X0025118Y0111239D02*
X0184918Y0111239D01*
X0184918Y0110241D02*
X0104640Y0110241D01*
X0110233Y0102253D02*
X0147441Y0102253D01*
X0147441Y0101254D02*
X0110233Y0101254D01*
X0110233Y0100256D02*
X0147441Y0100256D01*
X0147441Y0099257D02*
X0138948Y0099257D01*
X0138935Y0099303D02*
X0138738Y0099645D01*
X0138459Y0099925D01*
X0138116Y0100122D01*
X0137735Y0100224D01*
X0132919Y0100224D01*
X0132919Y0094500D01*
X0131919Y0094500D01*
X0131919Y0093500D01*
X0125801Y0093500D01*
X0125801Y0089078D01*
X0125903Y0088697D01*
X0126101Y0088355D01*
X0126380Y0088075D01*
X0126722Y0087878D01*
X0127104Y0087776D01*
X0131919Y0087776D01*
X0131919Y0093500D01*
X0132919Y0093500D01*
X0132919Y0087776D01*
X0137735Y0087776D01*
X0138116Y0087878D01*
X0138459Y0088075D01*
X0138738Y0088355D01*
X0138935Y0088697D01*
X0139037Y0089078D01*
X0139037Y0093500D01*
X0132919Y0093500D01*
X0132919Y0094500D01*
X0139037Y0094500D01*
X0139037Y0098922D01*
X0138935Y0099303D01*
X0139037Y0098259D02*
X0147562Y0098259D01*
X0147562Y0097260D02*
X0139037Y0097260D01*
X0139037Y0096262D02*
X0147562Y0096262D01*
X0147562Y0095263D02*
X0139037Y0095263D01*
X0139037Y0093266D02*
X0147562Y0093266D01*
X0147562Y0092268D02*
X0139037Y0092268D01*
X0139037Y0091269D02*
X0147562Y0091269D01*
X0147562Y0090271D02*
X0139037Y0090271D01*
X0139037Y0089272D02*
X0147562Y0089272D01*
X0147562Y0088274D02*
X0138657Y0088274D01*
X0132919Y0088274D02*
X0131919Y0088274D01*
X0131919Y0089272D02*
X0132919Y0089272D01*
X0132919Y0090271D02*
X0131919Y0090271D01*
X0131919Y0091269D02*
X0132919Y0091269D01*
X0132919Y0092268D02*
X0131919Y0092268D01*
X0131919Y0093266D02*
X0132919Y0093266D01*
X0132919Y0094265D02*
X0147562Y0094265D01*
X0147562Y0087275D02*
X0110439Y0087275D01*
X0110439Y0086277D02*
X0147562Y0086277D01*
X0148380Y0085278D02*
X0110439Y0085278D01*
X0109558Y0084280D02*
X0161656Y0084280D01*
X0132919Y0095263D02*
X0131919Y0095263D01*
X0131919Y0094500D02*
X0131919Y0100224D01*
X0127104Y0100224D01*
X0126722Y0100122D01*
X0126380Y0099925D01*
X0126101Y0099645D01*
X0125903Y0099303D01*
X0125801Y0098922D01*
X0125801Y0094500D01*
X0131919Y0094500D01*
X0131919Y0094265D02*
X0110439Y0094265D01*
X0110439Y0093266D02*
X0125801Y0093266D01*
X0125801Y0092268D02*
X0110439Y0092268D01*
X0110439Y0091269D02*
X0125801Y0091269D01*
X0125801Y0090271D02*
X0110439Y0090271D01*
X0110439Y0089272D02*
X0125801Y0089272D01*
X0126182Y0088274D02*
X0110439Y0088274D01*
X0110233Y0095263D02*
X0125801Y0095263D01*
X0125801Y0096262D02*
X0110233Y0096262D01*
X0110233Y0097260D02*
X0125801Y0097260D01*
X0125801Y0098259D02*
X0110233Y0098259D01*
X0110233Y0099257D02*
X0125891Y0099257D01*
X0131919Y0099257D02*
X0132919Y0099257D01*
X0132919Y0098259D02*
X0131919Y0098259D01*
X0131919Y0097260D02*
X0132919Y0097260D01*
X0132919Y0096262D02*
X0131919Y0096262D01*
X0158922Y0109242D02*
X0184918Y0109242D01*
X0184918Y0108244D02*
X0159829Y0108244D01*
X0160243Y0107245D02*
X0184918Y0107245D01*
X0184918Y0106247D02*
X0160267Y0106247D01*
X0160267Y0105248D02*
X0184918Y0105248D01*
X0184918Y0104250D02*
X0165646Y0104250D01*
X0166419Y0103251D02*
X0184918Y0103251D01*
X0184918Y0102253D02*
X0166419Y0102253D01*
X0167185Y0101254D02*
X0184918Y0101254D01*
X0184918Y0112238D02*
X0025118Y0112238D01*
X0025118Y0113237D02*
X0184918Y0113237D01*
X0080349Y0109242D02*
X0025118Y0109242D01*
X0025118Y0108244D02*
X0080191Y0108244D01*
X0080191Y0107245D02*
X0025118Y0107245D01*
X0025118Y0106247D02*
X0080191Y0106247D01*
X0080191Y0105248D02*
X0025118Y0105248D01*
X0025118Y0104250D02*
X0080191Y0104250D01*
X0080191Y0103251D02*
X0025118Y0103251D01*
X0025118Y0102253D02*
X0031061Y0102253D01*
X0030192Y0101254D02*
X0025118Y0101254D01*
X0025118Y0100256D02*
X0030192Y0100256D01*
X0030192Y0099257D02*
X0025118Y0099257D01*
X0025118Y0098259D02*
X0030192Y0098259D01*
X0030192Y0097260D02*
X0025118Y0097260D01*
X0025118Y0096262D02*
X0030192Y0096262D01*
X0030192Y0095263D02*
X0025118Y0095263D01*
X0025118Y0094265D02*
X0030192Y0094265D01*
X0030192Y0093266D02*
X0025118Y0093266D01*
X0025118Y0092268D02*
X0030192Y0092268D01*
X0030192Y0091269D02*
X0025118Y0091269D01*
X0025118Y0090271D02*
X0030192Y0090271D01*
X0030192Y0089272D02*
X0025118Y0089272D01*
X0025118Y0088274D02*
X0030192Y0088274D01*
X0030192Y0087275D02*
X0025118Y0087275D01*
X0025118Y0086277D02*
X0030192Y0086277D01*
X0030192Y0085278D02*
X0025118Y0085278D01*
X0025118Y0084280D02*
X0030192Y0084280D01*
X0030192Y0083281D02*
X0025118Y0083281D01*
X0025118Y0082283D02*
X0030192Y0082283D01*
X0030192Y0081284D02*
X0025118Y0081284D01*
X0025118Y0080286D02*
X0030192Y0080286D01*
X0030192Y0079287D02*
X0025118Y0079287D01*
X0025118Y0078289D02*
X0030192Y0078289D01*
X0030192Y0077290D02*
X0025118Y0077290D01*
X0025118Y0076292D02*
X0030192Y0076292D01*
X0030192Y0075293D02*
X0025118Y0075293D01*
X0025118Y0074295D02*
X0031158Y0074295D01*
X0025118Y0073296D02*
X0039218Y0073296D01*
X0039218Y0072298D02*
X0025118Y0072298D01*
X0025118Y0071299D02*
X0039218Y0071299D01*
X0039218Y0072156D02*
X0039218Y0072156D01*
X0039218Y0070301D02*
X0025118Y0070301D01*
X0025118Y0069302D02*
X0039218Y0069302D01*
X0039218Y0068303D02*
X0025118Y0068303D01*
X0025118Y0067305D02*
X0039218Y0067305D01*
X0039218Y0066306D02*
X0025118Y0066306D01*
X0025118Y0065308D02*
X0039218Y0065308D01*
X0039218Y0064309D02*
X0025118Y0064309D01*
X0025118Y0063311D02*
X0039218Y0063311D01*
X0039218Y0062312D02*
X0025118Y0062312D01*
X0025118Y0061314D02*
X0039218Y0061314D01*
X0039218Y0060315D02*
X0025118Y0060315D01*
X0025118Y0059317D02*
X0039218Y0059317D01*
X0039218Y0058318D02*
X0025118Y0058318D01*
X0025118Y0057320D02*
X0039218Y0057320D01*
X0039218Y0056321D02*
X0025118Y0056321D01*
X0025118Y0055323D02*
X0039218Y0055323D01*
X0039218Y0054324D02*
X0025118Y0054324D01*
X0025118Y0053326D02*
X0039218Y0053326D01*
X0039218Y0052327D02*
X0025118Y0052327D01*
X0025118Y0051329D02*
X0034048Y0051329D01*
X0026509Y0050330D02*
X0025118Y0050330D01*
X0025118Y0049332D02*
X0025944Y0049332D01*
X0025944Y0048333D02*
X0025118Y0048333D01*
X0025118Y0047335D02*
X0025944Y0047335D01*
X0025944Y0046336D02*
X0025118Y0046336D01*
X0025118Y0045338D02*
X0025944Y0045338D01*
X0025944Y0044339D02*
X0025118Y0044339D01*
X0025118Y0043341D02*
X0025944Y0043341D01*
X0026049Y0042342D02*
X0025118Y0042342D01*
X0025118Y0041344D02*
X0026673Y0041344D01*
X0026670Y0040345D02*
X0025118Y0040345D01*
X0025118Y0039347D02*
X0026673Y0039347D01*
X0026673Y0038348D02*
X0025118Y0038348D01*
X0025118Y0037350D02*
X0026673Y0037350D01*
X0026673Y0036351D02*
X0025118Y0036351D01*
X0025118Y0035353D02*
X0026673Y0035353D01*
X0026673Y0034354D02*
X0025118Y0034354D01*
X0025118Y0033356D02*
X0026673Y0033356D01*
X0026673Y0032357D02*
X0025118Y0032357D01*
X0025118Y0031359D02*
X0026673Y0031359D01*
X0026673Y0030360D02*
X0025118Y0030360D01*
X0025118Y0029362D02*
X0026673Y0029362D01*
X0026673Y0028363D02*
X0025118Y0028363D01*
X0025118Y0027365D02*
X0026673Y0027365D01*
X0026673Y0026366D02*
X0025118Y0026366D01*
X0025118Y0025368D02*
X0026673Y0025368D01*
X0026673Y0024369D02*
X0025118Y0024369D01*
X0025118Y0023370D02*
X0026673Y0023370D01*
X0026673Y0022372D02*
X0025118Y0022372D01*
X0025118Y0021373D02*
X0026673Y0021373D01*
X0026673Y0020375D02*
X0025118Y0020375D01*
X0025118Y0019376D02*
X0026673Y0019376D01*
X0026673Y0018378D02*
X0025118Y0018378D01*
X0025118Y0017379D02*
X0026628Y0017379D01*
X0026762Y0016381D02*
X0025118Y0016381D01*
X0025118Y0015382D02*
X0027177Y0015382D01*
X0027905Y0014384D02*
X0025118Y0014384D01*
X0025118Y0013385D02*
X0028557Y0013385D01*
X0029208Y0012387D02*
X0025118Y0012387D01*
X0025118Y0011388D02*
X0029860Y0011388D01*
X0030512Y0010390D02*
X0025118Y0010390D01*
X0025118Y0009391D02*
X0031101Y0009391D01*
X0032259Y0008393D02*
X0025118Y0008393D01*
X0025118Y0007394D02*
X0077928Y0007394D01*
X0072044Y0015382D02*
X0049128Y0015382D01*
X0050127Y0016381D02*
X0072044Y0016381D01*
X0072006Y0017379D02*
X0051125Y0017379D01*
X0051518Y0018378D02*
X0072006Y0018378D01*
X0072006Y0019376D02*
X0051518Y0019376D01*
X0051518Y0020375D02*
X0072006Y0020375D01*
X0071439Y0021373D02*
X0043018Y0021373D01*
X0042018Y0021373D02*
X0033273Y0021373D01*
X0033518Y0021000D02*
X0033518Y0017859D01*
X0033273Y0018234D01*
X0033273Y0030306D01*
X0038596Y0030306D01*
X0033518Y0025228D01*
X0033518Y0022000D01*
X0042018Y0022000D01*
X0042018Y0021000D01*
X0033518Y0021000D01*
X0033518Y0020375D02*
X0033273Y0020375D01*
X0033273Y0019376D02*
X0033518Y0019376D01*
X0033518Y0018378D02*
X0033273Y0018378D01*
X0033273Y0022372D02*
X0033518Y0022372D01*
X0033518Y0023370D02*
X0033273Y0023370D01*
X0033273Y0024369D02*
X0033518Y0024369D01*
X0033657Y0025368D02*
X0033273Y0025368D01*
X0033273Y0026366D02*
X0034656Y0026366D01*
X0035654Y0027365D02*
X0033273Y0027365D01*
X0033273Y0028363D02*
X0036653Y0028363D01*
X0037651Y0029362D02*
X0033273Y0029362D01*
X0046386Y0030360D02*
X0070989Y0030360D01*
X0070989Y0029362D02*
X0047384Y0029362D01*
X0048383Y0028363D02*
X0070989Y0028363D01*
X0070989Y0027365D02*
X0049381Y0027365D01*
X0050380Y0026366D02*
X0070989Y0026366D01*
X0070989Y0025368D02*
X0051378Y0025368D01*
X0051518Y0024369D02*
X0070989Y0024369D01*
X0070989Y0023370D02*
X0051518Y0023370D01*
X0051518Y0022372D02*
X0071025Y0022372D01*
X0070989Y0031359D02*
X0046683Y0031359D01*
X0046860Y0032357D02*
X0070989Y0032357D01*
X0070989Y0033356D02*
X0046860Y0033356D01*
X0048342Y0034354D02*
X0070989Y0034354D01*
X0070989Y0035353D02*
X0070719Y0035353D01*
X0065616Y0035353D02*
X0064616Y0035353D01*
X0064616Y0036351D02*
X0065616Y0036351D01*
X0065616Y0037350D02*
X0064616Y0037350D01*
X0064616Y0038348D02*
X0065616Y0038348D01*
X0065616Y0039347D02*
X0064616Y0039347D01*
X0064616Y0040345D02*
X0065616Y0040345D01*
X0064616Y0041344D02*
X0049161Y0041344D01*
X0049161Y0042342D02*
X0058498Y0042342D01*
X0058498Y0042000D02*
X0064616Y0042000D01*
X0064616Y0047724D01*
X0059801Y0047724D01*
X0059419Y0047622D01*
X0059077Y0047425D01*
X0058798Y0047145D01*
X0058600Y0046803D01*
X0058498Y0046422D01*
X0058498Y0042000D01*
X0058498Y0043341D02*
X0049161Y0043341D01*
X0049161Y0044339D02*
X0058498Y0044339D01*
X0058498Y0045338D02*
X0049161Y0045338D01*
X0049161Y0046336D02*
X0058498Y0046336D01*
X0058987Y0047335D02*
X0049161Y0047335D01*
X0048896Y0048333D02*
X0070989Y0048333D01*
X0070989Y0049332D02*
X0045818Y0049332D01*
X0045818Y0050330D02*
X0070989Y0050330D01*
X0070989Y0051329D02*
X0045818Y0051329D01*
X0045818Y0052327D02*
X0070989Y0052327D01*
X0070989Y0053326D02*
X0045818Y0053326D01*
X0045818Y0054324D02*
X0070989Y0054324D01*
X0070989Y0055323D02*
X0059116Y0055323D01*
X0059942Y0056321D02*
X0070989Y0056321D01*
X0070989Y0057320D02*
X0060627Y0057320D01*
X0061396Y0058318D02*
X0070989Y0058318D01*
X0070989Y0059317D02*
X0061396Y0059317D01*
X0061396Y0060315D02*
X0070989Y0060315D01*
X0070989Y0061314D02*
X0061396Y0061314D01*
X0061396Y0062312D02*
X0070989Y0062312D01*
X0070989Y0063311D02*
X0061396Y0063311D01*
X0061396Y0064309D02*
X0070989Y0064309D01*
X0070989Y0065308D02*
X0061396Y0065308D01*
X0061154Y0066306D02*
X0070989Y0066306D01*
X0070989Y0067305D02*
X0062014Y0067305D01*
X0062226Y0068303D02*
X0070989Y0068303D01*
X0070989Y0069302D02*
X0062226Y0069302D01*
X0062226Y0070301D02*
X0070989Y0070301D01*
X0070989Y0071299D02*
X0059242Y0071299D01*
X0059242Y0071315D02*
X0062226Y0071315D01*
X0062226Y0073784D01*
X0062124Y0074166D01*
X0061927Y0074508D01*
X0061647Y0074787D01*
X0061305Y0074984D01*
X0060924Y0075087D01*
X0059242Y0075087D01*
X0059242Y0071315D01*
X0059242Y0072298D02*
X0058489Y0072298D01*
X0058360Y0073296D02*
X0059242Y0073296D01*
X0059242Y0074295D02*
X0058383Y0074295D01*
X0058383Y0075293D02*
X0073494Y0075293D01*
X0072496Y0074295D02*
X0062050Y0074295D01*
X0062226Y0073296D02*
X0071497Y0073296D01*
X0071081Y0072298D02*
X0062226Y0072298D01*
X0058383Y0076292D02*
X0074493Y0076292D01*
X0075491Y0077290D02*
X0058383Y0077290D01*
X0057458Y0078289D02*
X0076490Y0078289D01*
X0052087Y0055323D02*
X0045818Y0055323D01*
X0064616Y0047335D02*
X0065616Y0047335D01*
X0065616Y0046336D02*
X0064616Y0046336D01*
X0064616Y0045338D02*
X0065616Y0045338D01*
X0065616Y0044339D02*
X0064616Y0044339D01*
X0064616Y0043341D02*
X0065616Y0043341D01*
X0065616Y0042342D02*
X0064616Y0042342D01*
X0058498Y0040345D02*
X0049161Y0040345D01*
X0049161Y0039347D02*
X0058498Y0039347D01*
X0058498Y0038348D02*
X0049161Y0038348D01*
X0049161Y0037350D02*
X0058498Y0037350D01*
X0058559Y0036351D02*
X0049161Y0036351D01*
X0049161Y0035353D02*
X0059513Y0035353D01*
D11*
X0086356Y0021500D03*
X0103679Y0021500D03*
D12*
X0098423Y0062012D03*
X0086612Y0062012D03*
X0086612Y0100988D03*
X0098423Y0100988D03*
D13*
X0147818Y0051500D03*
X0147818Y0046500D03*
X0147818Y0041500D03*
X0147818Y0036500D03*
X0167218Y0036500D03*
X0167218Y0041500D03*
X0167218Y0046500D03*
X0167218Y0051500D03*
D14*
X0107616Y0041500D03*
X0082419Y0041500D03*
X0065116Y0041500D03*
X0039919Y0041500D03*
X0132419Y0094000D03*
X0157616Y0094000D03*
D15*
X0132577Y0066500D03*
X0127459Y0066500D03*
X0127459Y0051500D03*
X0132577Y0051500D03*
X0132577Y0034000D03*
X0127459Y0034000D03*
X0127459Y0021500D03*
X0132577Y0021500D03*
D16*
X0147006Y0069000D03*
X0158030Y0069000D03*
D17*
X0177518Y0089000D03*
X0177518Y0021500D03*
X0042518Y0021500D03*
X0042518Y0089000D03*
D18*
X0051278Y0070831D03*
X0058758Y0070831D03*
X0055018Y0062169D03*
D19*
X0059526Y0070358D02*
X0064447Y0065437D01*
X0064447Y0043783D01*
X0064379Y0021526D01*
X0042518Y0021500D01*
X0029973Y0017253D02*
X0029973Y0040875D01*
X0038856Y0040831D01*
X0042518Y0041500D02*
X0042518Y0071500D01*
X0047518Y0071500D01*
X0049927Y0071501D01*
X0042518Y0071500D02*
X0042518Y0089000D01*
X0060018Y0099000D02*
X0062518Y0101500D01*
X0085018Y0101500D01*
X0098896Y0106531D02*
X0156967Y0106531D01*
X0156967Y0094965D01*
X0157616Y0094000D02*
X0165018Y0094000D01*
X0170018Y0089000D01*
X0177518Y0089000D01*
X0182518Y0089000D01*
X0182518Y0041500D01*
X0177518Y0036500D01*
X0167218Y0036500D01*
X0167402Y0041497D02*
X0160879Y0041497D01*
X0160904Y0029925D01*
X0168699Y0022130D01*
X0176652Y0022130D01*
X0155018Y0014000D02*
X0155018Y0046500D01*
X0160018Y0051500D01*
X0167218Y0051500D01*
X0167250Y0045801D02*
X0167250Y0041864D01*
X0147818Y0046500D02*
X0137518Y0046500D01*
X0132518Y0041500D01*
X0132518Y0034000D01*
X0132518Y0021500D01*
X0127459Y0021500D02*
X0122414Y0021505D01*
X0118128Y0027425D01*
X0118128Y0077327D01*
X0080195Y0077327D01*
X0074289Y0071421D01*
X0074289Y0023114D01*
X0086100Y0023114D01*
X0086100Y0021146D02*
X0076258Y0011303D01*
X0033856Y0011303D01*
X0029973Y0017253D01*
X0083148Y0040831D02*
X0095490Y0030988D01*
X0095490Y0011756D01*
X0150845Y0011756D01*
X0154980Y0014068D01*
X0127439Y0034925D02*
X0127439Y0050673D01*
X0133345Y0051657D02*
X0146140Y0064453D01*
X0146140Y0068390D01*
X0157951Y0068390D02*
X0157951Y0061500D01*
X0148108Y0051657D01*
X0132577Y0066500D02*
X0132563Y0072512D01*
X0136694Y0076311D01*
X0157951Y0076264D01*
X0157951Y0069374D01*
X0106770Y0053626D02*
X0106770Y0041815D01*
X0106770Y0053626D02*
X0098896Y0061500D01*
X0083148Y0058547D02*
X0083148Y0041815D01*
X0059950Y0071428D02*
X0059947Y0074295D01*
X0060018Y0099000D01*
D20*
X0098423Y0100988D02*
X0098896Y0106531D01*
X0128423Y0090043D02*
X0132360Y0093980D01*
X0132419Y0094000D01*
X0128915Y0082898D02*
X0129272Y0082541D01*
X0166933Y0082541D01*
X0176219Y0073254D01*
X0176219Y0049206D01*
X0170545Y0046031D01*
X0167370Y0046031D01*
X0167218Y0046500D01*
X0167250Y0045801D01*
X0167250Y0041864D02*
X0167218Y0041500D01*
X0167402Y0041497D01*
X0148108Y0051657D02*
X0147818Y0051500D01*
X0133345Y0051657D02*
X0132577Y0051500D01*
X0127459Y0051500D02*
X0127439Y0050673D01*
X0127459Y0051500D02*
X0127439Y0051657D01*
X0127439Y0066421D01*
X0127459Y0066500D01*
X0146140Y0068390D02*
X0147006Y0069000D01*
X0157951Y0069374D02*
X0158030Y0069000D01*
X0157951Y0068390D01*
X0157616Y0094000D02*
X0156967Y0094965D01*
X0098896Y0061500D02*
X0098423Y0062012D01*
X0086612Y0062012D02*
X0083148Y0058547D01*
X0059526Y0070358D02*
X0058758Y0070831D01*
X0059526Y0071343D01*
X0059950Y0071428D01*
X0064447Y0043783D02*
X0065116Y0041500D01*
X0064447Y0041815D01*
X0064447Y0043783D01*
X0082419Y0041500D02*
X0083148Y0040831D01*
X0083148Y0041815D02*
X0082419Y0041500D01*
X0106770Y0041815D02*
X0107616Y0041500D01*
X0106770Y0040831D01*
X0127439Y0034925D02*
X0127459Y0034000D01*
X0106770Y0025083D02*
X0103817Y0022130D01*
X0103679Y0021500D01*
X0086356Y0021500D02*
X0086100Y0021146D01*
X0086356Y0021500D02*
X0086100Y0023114D01*
X0086100Y0022130D02*
X0086356Y0021500D01*
X0040825Y0041815D02*
X0039919Y0041500D01*
X0038856Y0040831D01*
X0176652Y0022130D02*
X0177518Y0021500D01*
D21*
X0155018Y0014000D02*
X0154980Y0014068D01*
X0132577Y0021500D02*
X0132518Y0021500D01*
X0132518Y0034000D02*
X0132577Y0034000D01*
X0127518Y0066500D02*
X0127459Y0066500D01*
X0127518Y0066500D02*
X0127518Y0081500D01*
X0128915Y0082898D01*
X0130018Y0084000D01*
X0092518Y0084000D01*
X0087518Y0089000D01*
X0087518Y0099000D01*
X0086612Y0100988D01*
X0085018Y0101500D01*
X0130018Y0091500D02*
X0130018Y0084000D01*
X0130018Y0091500D02*
X0132419Y0094000D01*
X0052518Y0071500D02*
X0051278Y0070831D01*
X0052518Y0071500D02*
X0047518Y0071500D01*
X0047518Y0071500D01*
X0042518Y0041500D02*
X0039919Y0041500D01*
D22*
X0106770Y0040831D02*
X0106770Y0025083D01*
M02*
