G75*
%MOIN*%
%OFA0B0*%
%FSLAX25Y25*%
%IPPOS*%
%LPD*%
%AMOC8*
5,1,8,0,0,1.08239X$1,22.5*
%
%ADD10C,0.00400*%
%ADD11C,0.00800*%
%ADD12R,0.02100X0.08600*%
%ADD13R,0.02165X0.14961*%
%ADD14C,0.00500*%
%ADD15R,0.07874X0.01575*%
%ADD16C,0.00000*%
%ADD17C,0.00300*%
%ADD18C,0.00600*%
%ADD19R,0.02300X0.07200*%
%ADD20R,0.02953X0.06693*%
D10*
X0035692Y0028167D02*
X0036459Y0027400D01*
X0037994Y0027400D01*
X0038761Y0028167D01*
X0040296Y0027400D02*
X0043365Y0027400D01*
X0041831Y0027400D02*
X0041831Y0032004D01*
X0040296Y0030469D01*
X0038761Y0031237D02*
X0037994Y0032004D01*
X0036459Y0032004D01*
X0035692Y0031237D01*
X0035692Y0028167D01*
X0065800Y0029700D02*
X0065800Y0014700D01*
X0083600Y0014700D01*
X0083600Y0029700D01*
X0065800Y0029700D01*
X0086942Y0028167D02*
X0087709Y0027400D01*
X0089244Y0027400D01*
X0090011Y0028167D01*
X0091546Y0028167D02*
X0092313Y0027400D01*
X0093848Y0027400D01*
X0094615Y0028167D01*
X0094615Y0029702D01*
X0093848Y0030469D01*
X0093081Y0030469D01*
X0091546Y0029702D01*
X0091546Y0032004D01*
X0094615Y0032004D01*
X0090011Y0031237D02*
X0089244Y0032004D01*
X0087709Y0032004D01*
X0086942Y0031237D01*
X0086942Y0028167D01*
X0104900Y0039900D02*
X0104900Y0044504D01*
X0107202Y0044504D01*
X0107969Y0043737D01*
X0107969Y0042202D01*
X0107202Y0041435D01*
X0104900Y0041435D01*
X0106435Y0041435D02*
X0107969Y0039900D01*
X0109504Y0039900D02*
X0112573Y0039900D01*
X0111039Y0039900D02*
X0111039Y0044504D01*
X0109504Y0042969D01*
X0103823Y0048167D02*
X0103056Y0047400D01*
X0101521Y0047400D01*
X0100754Y0048167D01*
X0099219Y0047400D02*
X0097685Y0048935D01*
X0098452Y0048935D02*
X0096150Y0048935D01*
X0096150Y0047400D02*
X0096150Y0052004D01*
X0098452Y0052004D01*
X0099219Y0051237D01*
X0099219Y0049702D01*
X0098452Y0048935D01*
X0102289Y0049702D02*
X0103056Y0049702D01*
X0103823Y0048935D01*
X0103823Y0048167D01*
X0103056Y0049702D02*
X0103823Y0050469D01*
X0103823Y0051237D01*
X0103056Y0052004D01*
X0101521Y0052004D01*
X0100754Y0051237D01*
X0106459Y0064900D02*
X0107994Y0064900D01*
X0108761Y0065667D01*
X0110296Y0065667D02*
X0111063Y0064900D01*
X0112598Y0064900D01*
X0113365Y0065667D01*
X0113365Y0066435D01*
X0112598Y0067202D01*
X0111831Y0067202D01*
X0112598Y0067202D02*
X0113365Y0067969D01*
X0113365Y0068737D01*
X0112598Y0069504D01*
X0111063Y0069504D01*
X0110296Y0068737D01*
X0108761Y0068737D02*
X0107994Y0069504D01*
X0106459Y0069504D01*
X0105692Y0068737D01*
X0105692Y0065667D01*
X0106459Y0064900D01*
X0105901Y0071602D02*
X0113499Y0071602D01*
X0113499Y0077798D02*
X0105901Y0077798D01*
X0128401Y0072798D02*
X0135999Y0072798D01*
X0141942Y0071237D02*
X0141942Y0068167D01*
X0142709Y0067400D01*
X0144244Y0067400D01*
X0145011Y0068167D01*
X0146546Y0067400D02*
X0149615Y0070469D01*
X0149615Y0071237D01*
X0148848Y0072004D01*
X0147313Y0072004D01*
X0146546Y0071237D01*
X0145011Y0071237D02*
X0144244Y0072004D01*
X0142709Y0072004D01*
X0141942Y0071237D01*
X0146546Y0067400D02*
X0149615Y0067400D01*
X0135999Y0066602D02*
X0128401Y0066602D01*
X0119306Y0104900D02*
X0119306Y0109504D01*
X0117004Y0107202D01*
X0120073Y0107202D01*
X0115469Y0108737D02*
X0114702Y0109504D01*
X0113167Y0109504D01*
X0112400Y0108737D01*
X0112400Y0105667D01*
X0113167Y0104900D01*
X0114702Y0104900D01*
X0115469Y0105667D01*
X0045930Y0069514D02*
X0045930Y0064910D01*
X0044396Y0064910D02*
X0047465Y0064910D01*
X0044396Y0067979D02*
X0045930Y0069514D01*
X0039792Y0069514D02*
X0039792Y0064910D01*
X0042861Y0064910D01*
X0119442Y0024504D02*
X0121744Y0024504D01*
X0122511Y0023737D01*
X0122511Y0022202D01*
X0121744Y0021435D01*
X0119442Y0021435D01*
X0120977Y0021435D02*
X0122511Y0019900D01*
X0124046Y0019900D02*
X0127115Y0022969D01*
X0127115Y0023737D01*
X0126348Y0024504D01*
X0124813Y0024504D01*
X0124046Y0023737D01*
X0119442Y0024504D02*
X0119442Y0019900D01*
X0124046Y0019900D02*
X0127115Y0019900D01*
X0080323Y0007150D02*
X0077254Y0007150D01*
X0078789Y0007150D02*
X0078789Y0011754D01*
X0077254Y0010219D01*
X0075719Y0010987D02*
X0074952Y0011754D01*
X0072650Y0011754D01*
X0072650Y0007150D01*
X0074952Y0007150D01*
X0075719Y0007917D01*
X0075719Y0010987D01*
D11*
X0075460Y0018263D02*
X0075460Y0026137D01*
X0071432Y0022200D01*
X0075460Y0018263D01*
X0088802Y0033558D02*
X0060558Y0033558D01*
X0060558Y0035842D01*
X0060558Y0033558D02*
X0060558Y0050842D01*
X0060558Y0048558D01*
X0060558Y0050842D02*
X0088802Y0050842D01*
X0088802Y0048558D01*
X0088802Y0050842D02*
X0088802Y0033558D01*
X0088802Y0035842D01*
X0066669Y0042200D02*
X0062535Y0042200D01*
X0064661Y0044247D02*
X0064661Y0040153D01*
X0046302Y0035842D02*
X0046302Y0033558D01*
X0046302Y0050842D01*
X0046302Y0048558D01*
X0046302Y0050842D02*
X0018058Y0050842D01*
X0018058Y0048558D01*
X0018058Y0050842D02*
X0018058Y0033558D01*
X0018058Y0035842D01*
X0018058Y0033558D02*
X0046302Y0033558D01*
X0024169Y0042200D02*
X0020035Y0042200D01*
X0022161Y0044247D02*
X0022161Y0040153D01*
X0110598Y0086058D02*
X0110598Y0088342D01*
X0110598Y0086058D02*
X0110598Y0103342D01*
X0110598Y0101058D01*
X0110598Y0103342D02*
X0138842Y0103342D01*
X0138842Y0101058D01*
X0138842Y0103342D02*
X0138842Y0086058D01*
X0138842Y0088342D01*
X0138842Y0086058D02*
X0110598Y0086058D01*
X0132731Y0094700D02*
X0136865Y0094700D01*
X0134739Y0092653D02*
X0134739Y0096747D01*
X0132750Y0032506D02*
X0132750Y0026334D01*
X0133984Y0025100D01*
X0136453Y0025100D01*
X0137688Y0026334D01*
X0137688Y0032506D01*
X0140300Y0030038D02*
X0142769Y0032506D01*
X0142769Y0025100D01*
X0140300Y0025100D02*
X0145238Y0025100D01*
D12*
X0084650Y0022200D03*
X0064750Y0022200D03*
D13*
X0070468Y0022200D03*
D14*
X0016951Y0006450D02*
X0016200Y0007201D01*
X0016200Y0010203D01*
X0016951Y0010954D01*
X0018452Y0010954D01*
X0019203Y0010203D01*
X0019203Y0008702D02*
X0017701Y0008702D01*
X0019203Y0008702D02*
X0019203Y0007201D01*
X0018452Y0006450D01*
X0016951Y0006450D01*
X0020804Y0006450D02*
X0020804Y0010954D01*
X0023806Y0006450D01*
X0023806Y0010954D01*
X0025408Y0010954D02*
X0027660Y0010954D01*
X0028410Y0010203D01*
X0028410Y0007201D01*
X0027660Y0006450D01*
X0025408Y0006450D01*
X0025408Y0010954D01*
X0034616Y0010203D02*
X0034616Y0007201D01*
X0035366Y0006450D01*
X0036868Y0006450D01*
X0037618Y0007201D01*
X0037618Y0010203D01*
X0036868Y0010954D01*
X0035366Y0010954D01*
X0034616Y0010203D01*
X0039220Y0010954D02*
X0039220Y0007201D01*
X0039970Y0006450D01*
X0041472Y0006450D01*
X0042222Y0007201D01*
X0042222Y0010954D01*
X0043824Y0010954D02*
X0046826Y0010954D01*
X0045325Y0010954D02*
X0045325Y0006450D01*
X0033014Y0005699D02*
X0030012Y0005699D01*
X0047594Y0057594D02*
X0096806Y0057594D01*
X0096806Y0106806D01*
X0047594Y0106806D01*
X0047594Y0057594D01*
X0049917Y0061373D02*
X0049919Y0061435D01*
X0049925Y0061498D01*
X0049935Y0061559D01*
X0049949Y0061620D01*
X0049966Y0061680D01*
X0049987Y0061739D01*
X0050013Y0061796D01*
X0050041Y0061851D01*
X0050073Y0061905D01*
X0050109Y0061956D01*
X0050147Y0062006D01*
X0050189Y0062052D01*
X0050233Y0062096D01*
X0050281Y0062137D01*
X0050330Y0062175D01*
X0050382Y0062209D01*
X0050436Y0062240D01*
X0050492Y0062268D01*
X0050550Y0062292D01*
X0050609Y0062313D01*
X0050669Y0062329D01*
X0050730Y0062342D01*
X0050792Y0062351D01*
X0050854Y0062356D01*
X0050917Y0062357D01*
X0050979Y0062354D01*
X0051041Y0062347D01*
X0051103Y0062336D01*
X0051163Y0062321D01*
X0051223Y0062303D01*
X0051281Y0062281D01*
X0051338Y0062255D01*
X0051393Y0062225D01*
X0051446Y0062192D01*
X0051497Y0062156D01*
X0051545Y0062117D01*
X0051591Y0062074D01*
X0051634Y0062029D01*
X0051674Y0061981D01*
X0051711Y0061931D01*
X0051745Y0061878D01*
X0051776Y0061824D01*
X0051802Y0061768D01*
X0051826Y0061710D01*
X0051845Y0061650D01*
X0051861Y0061590D01*
X0051873Y0061528D01*
X0051881Y0061467D01*
X0051885Y0061404D01*
X0051885Y0061342D01*
X0051881Y0061279D01*
X0051873Y0061218D01*
X0051861Y0061156D01*
X0051845Y0061096D01*
X0051826Y0061036D01*
X0051802Y0060978D01*
X0051776Y0060922D01*
X0051745Y0060868D01*
X0051711Y0060815D01*
X0051674Y0060765D01*
X0051634Y0060717D01*
X0051591Y0060672D01*
X0051545Y0060629D01*
X0051497Y0060590D01*
X0051446Y0060554D01*
X0051393Y0060521D01*
X0051338Y0060491D01*
X0051281Y0060465D01*
X0051223Y0060443D01*
X0051163Y0060425D01*
X0051103Y0060410D01*
X0051041Y0060399D01*
X0050979Y0060392D01*
X0050917Y0060389D01*
X0050854Y0060390D01*
X0050792Y0060395D01*
X0050730Y0060404D01*
X0050669Y0060417D01*
X0050609Y0060433D01*
X0050550Y0060454D01*
X0050492Y0060478D01*
X0050436Y0060506D01*
X0050382Y0060537D01*
X0050330Y0060571D01*
X0050281Y0060609D01*
X0050233Y0060650D01*
X0050189Y0060694D01*
X0050147Y0060740D01*
X0050109Y0060790D01*
X0050073Y0060841D01*
X0050041Y0060895D01*
X0050013Y0060950D01*
X0049987Y0061007D01*
X0049966Y0061066D01*
X0049949Y0061126D01*
X0049935Y0061187D01*
X0049925Y0061248D01*
X0049919Y0061311D01*
X0049917Y0061373D01*
X0065950Y0063288D02*
X0065950Y0079700D01*
X0077280Y0079700D01*
X0077280Y0101688D01*
X0065950Y0101688D02*
X0065950Y0085950D01*
X0083450Y0085950D01*
X0083450Y0074700D01*
X0078491Y0074700D01*
X0078450Y0063450D01*
X0029409Y0102700D02*
X0029409Y0107204D01*
X0027908Y0107204D02*
X0030910Y0107204D01*
X0026306Y0107204D02*
X0026306Y0103451D01*
X0025556Y0102700D01*
X0024055Y0102700D01*
X0023304Y0103451D01*
X0023304Y0107204D01*
X0021703Y0106453D02*
X0020952Y0107204D01*
X0019451Y0107204D01*
X0018700Y0106453D01*
X0018700Y0103451D01*
X0019451Y0102700D01*
X0020952Y0102700D01*
X0021703Y0103451D01*
X0021703Y0106453D01*
X0154950Y0105954D02*
X0156451Y0105954D01*
X0155701Y0105954D02*
X0155701Y0101450D01*
X0156451Y0101450D02*
X0154950Y0101450D01*
X0158019Y0101450D02*
X0158019Y0105954D01*
X0161022Y0101450D01*
X0161022Y0105954D01*
X0159438Y0012204D02*
X0159438Y0007700D01*
X0156435Y0012204D01*
X0156435Y0007700D01*
X0154867Y0007700D02*
X0153366Y0007700D01*
X0154116Y0007700D02*
X0154116Y0012204D01*
X0153366Y0012204D02*
X0154867Y0012204D01*
X0147160Y0011453D02*
X0147160Y0008451D01*
X0146410Y0007700D01*
X0144158Y0007700D01*
X0144158Y0012204D01*
X0146410Y0012204D01*
X0147160Y0011453D01*
X0142556Y0012204D02*
X0142556Y0007700D01*
X0139554Y0012204D01*
X0139554Y0007700D01*
X0137953Y0008451D02*
X0137953Y0009952D01*
X0136451Y0009952D01*
X0134950Y0011453D02*
X0134950Y0008451D01*
X0135701Y0007700D01*
X0137202Y0007700D01*
X0137953Y0008451D01*
X0137953Y0011453D02*
X0137202Y0012204D01*
X0135701Y0012204D01*
X0134950Y0011453D01*
X0148762Y0006949D02*
X0151764Y0006949D01*
D15*
X0071071Y0079682D03*
X0071232Y0085847D03*
D16*
X0125000Y0053200D02*
X0125000Y0051200D01*
X0129400Y0051200D01*
X0129400Y0053200D01*
X0125000Y0053200D01*
X0129400Y0054600D02*
X0129400Y0034800D01*
X0145000Y0034800D01*
X0145000Y0054600D01*
X0138400Y0054600D01*
X0136000Y0054600D01*
X0129400Y0054600D01*
X0136000Y0054600D02*
X0136002Y0054531D01*
X0136008Y0054463D01*
X0136018Y0054395D01*
X0136031Y0054328D01*
X0136049Y0054262D01*
X0136070Y0054197D01*
X0136095Y0054133D01*
X0136123Y0054071D01*
X0136155Y0054010D01*
X0136190Y0053951D01*
X0136229Y0053895D01*
X0136271Y0053840D01*
X0136316Y0053789D01*
X0136364Y0053739D01*
X0136414Y0053693D01*
X0136467Y0053650D01*
X0136523Y0053609D01*
X0136580Y0053572D01*
X0136640Y0053539D01*
X0136702Y0053508D01*
X0136765Y0053482D01*
X0136829Y0053459D01*
X0136895Y0053439D01*
X0136962Y0053424D01*
X0137029Y0053412D01*
X0137097Y0053404D01*
X0137166Y0053400D01*
X0137234Y0053400D01*
X0137303Y0053404D01*
X0137371Y0053412D01*
X0137438Y0053424D01*
X0137505Y0053439D01*
X0137571Y0053459D01*
X0137635Y0053482D01*
X0137698Y0053508D01*
X0137760Y0053539D01*
X0137820Y0053572D01*
X0137877Y0053609D01*
X0137933Y0053650D01*
X0137986Y0053693D01*
X0138036Y0053739D01*
X0138084Y0053789D01*
X0138129Y0053840D01*
X0138171Y0053895D01*
X0138210Y0053951D01*
X0138245Y0054010D01*
X0138277Y0054071D01*
X0138305Y0054133D01*
X0138330Y0054197D01*
X0138351Y0054262D01*
X0138369Y0054328D01*
X0138382Y0054395D01*
X0138392Y0054463D01*
X0138398Y0054531D01*
X0138400Y0054600D01*
X0145000Y0053200D02*
X0145000Y0051200D01*
X0149400Y0051200D01*
X0149400Y0053200D01*
X0145000Y0053200D01*
X0145000Y0048200D02*
X0149400Y0048200D01*
X0149400Y0046200D01*
X0145000Y0046200D01*
X0145000Y0048200D01*
X0145000Y0043200D02*
X0149400Y0043200D01*
X0149400Y0041200D01*
X0145000Y0041200D01*
X0145000Y0043200D01*
X0145000Y0038200D02*
X0149400Y0038200D01*
X0149400Y0036200D01*
X0145000Y0036200D01*
X0145000Y0038200D01*
X0129400Y0038200D02*
X0129400Y0036200D01*
X0125000Y0036200D01*
X0125000Y0038200D01*
X0129400Y0038200D01*
X0129400Y0041200D02*
X0125000Y0041200D01*
X0125000Y0043200D01*
X0129400Y0043200D01*
X0129400Y0041200D01*
X0129400Y0046200D02*
X0125000Y0046200D01*
X0125000Y0048200D01*
X0129400Y0048200D01*
X0129400Y0046200D01*
D17*
X0127486Y0054734D02*
X0124350Y0057870D01*
X0127486Y0054734D01*
X0125918Y0054734D02*
X0125918Y0057870D01*
X0125918Y0054734D01*
X0124350Y0054734D02*
X0127486Y0057870D01*
X0124350Y0054734D01*
X0124350Y0056302D02*
X0127486Y0056302D01*
X0124350Y0056302D01*
D18*
X0131600Y0054600D02*
X0136000Y0054600D01*
X0138400Y0054600D01*
X0142800Y0054600D01*
X0138400Y0054600D02*
X0138398Y0054531D01*
X0138392Y0054463D01*
X0138382Y0054395D01*
X0138369Y0054328D01*
X0138351Y0054262D01*
X0138330Y0054197D01*
X0138305Y0054133D01*
X0138277Y0054071D01*
X0138245Y0054010D01*
X0138210Y0053951D01*
X0138171Y0053895D01*
X0138129Y0053840D01*
X0138084Y0053789D01*
X0138036Y0053739D01*
X0137986Y0053693D01*
X0137933Y0053650D01*
X0137877Y0053609D01*
X0137820Y0053572D01*
X0137760Y0053539D01*
X0137698Y0053508D01*
X0137635Y0053482D01*
X0137571Y0053459D01*
X0137505Y0053439D01*
X0137438Y0053424D01*
X0137371Y0053412D01*
X0137303Y0053404D01*
X0137234Y0053400D01*
X0137166Y0053400D01*
X0137097Y0053404D01*
X0137029Y0053412D01*
X0136962Y0053424D01*
X0136895Y0053439D01*
X0136829Y0053459D01*
X0136765Y0053482D01*
X0136702Y0053508D01*
X0136640Y0053539D01*
X0136580Y0053572D01*
X0136523Y0053609D01*
X0136467Y0053650D01*
X0136414Y0053693D01*
X0136364Y0053739D01*
X0136316Y0053789D01*
X0136271Y0053840D01*
X0136229Y0053895D01*
X0136190Y0053951D01*
X0136155Y0054010D01*
X0136123Y0054071D01*
X0136095Y0054133D01*
X0136070Y0054197D01*
X0136049Y0054262D01*
X0136031Y0054328D01*
X0136018Y0054395D01*
X0136008Y0054463D01*
X0136002Y0054531D01*
X0136000Y0054600D01*
X0114200Y0053900D02*
X0105200Y0053900D01*
X0105200Y0060500D02*
X0114200Y0060500D01*
X0089401Y0046700D02*
X0089401Y0037700D01*
X0105200Y0038000D02*
X0114200Y0038000D01*
X0114200Y0031400D02*
X0105200Y0031400D01*
X0105200Y0025500D02*
X0114200Y0025500D01*
X0114200Y0018900D02*
X0105200Y0018900D01*
X0131600Y0034800D02*
X0142800Y0034800D01*
X0149700Y0029700D02*
X0152200Y0029700D01*
X0149700Y0029700D02*
X0149700Y0027200D01*
X0152200Y0022200D02*
X0152202Y0022341D01*
X0152208Y0022482D01*
X0152218Y0022622D01*
X0152232Y0022762D01*
X0152250Y0022902D01*
X0152271Y0023041D01*
X0152297Y0023180D01*
X0152326Y0023318D01*
X0152360Y0023454D01*
X0152397Y0023590D01*
X0152438Y0023725D01*
X0152483Y0023859D01*
X0152532Y0023991D01*
X0152584Y0024122D01*
X0152640Y0024251D01*
X0152700Y0024378D01*
X0152763Y0024504D01*
X0152829Y0024628D01*
X0152900Y0024751D01*
X0152973Y0024871D01*
X0153050Y0024989D01*
X0153130Y0025105D01*
X0153214Y0025218D01*
X0153300Y0025329D01*
X0153390Y0025438D01*
X0153483Y0025544D01*
X0153578Y0025647D01*
X0153677Y0025748D01*
X0153778Y0025846D01*
X0153882Y0025941D01*
X0153989Y0026033D01*
X0154098Y0026122D01*
X0154210Y0026207D01*
X0154324Y0026290D01*
X0154440Y0026370D01*
X0154559Y0026446D01*
X0154680Y0026518D01*
X0154802Y0026588D01*
X0154927Y0026653D01*
X0155053Y0026716D01*
X0155181Y0026774D01*
X0155311Y0026829D01*
X0155442Y0026881D01*
X0155575Y0026928D01*
X0155709Y0026972D01*
X0155844Y0027013D01*
X0155980Y0027049D01*
X0156117Y0027081D01*
X0156255Y0027110D01*
X0156393Y0027135D01*
X0156533Y0027155D01*
X0156673Y0027172D01*
X0156813Y0027185D01*
X0156954Y0027194D01*
X0157094Y0027199D01*
X0157235Y0027200D01*
X0157376Y0027197D01*
X0157517Y0027190D01*
X0157657Y0027179D01*
X0157797Y0027164D01*
X0157937Y0027145D01*
X0158076Y0027123D01*
X0158214Y0027096D01*
X0158352Y0027066D01*
X0158488Y0027031D01*
X0158624Y0026993D01*
X0158758Y0026951D01*
X0158892Y0026905D01*
X0159024Y0026856D01*
X0159154Y0026802D01*
X0159283Y0026745D01*
X0159410Y0026685D01*
X0159536Y0026621D01*
X0159659Y0026553D01*
X0159781Y0026482D01*
X0159901Y0026408D01*
X0160018Y0026330D01*
X0160133Y0026249D01*
X0160246Y0026165D01*
X0160357Y0026078D01*
X0160465Y0025987D01*
X0160570Y0025894D01*
X0160673Y0025797D01*
X0160773Y0025698D01*
X0160870Y0025596D01*
X0160964Y0025491D01*
X0161055Y0025384D01*
X0161143Y0025274D01*
X0161228Y0025162D01*
X0161310Y0025047D01*
X0161389Y0024930D01*
X0161464Y0024811D01*
X0161536Y0024690D01*
X0161604Y0024567D01*
X0161669Y0024442D01*
X0161731Y0024315D01*
X0161788Y0024186D01*
X0161843Y0024056D01*
X0161893Y0023925D01*
X0161940Y0023792D01*
X0161983Y0023658D01*
X0162022Y0023522D01*
X0162057Y0023386D01*
X0162089Y0023249D01*
X0162116Y0023111D01*
X0162140Y0022972D01*
X0162160Y0022832D01*
X0162176Y0022692D01*
X0162188Y0022552D01*
X0162196Y0022411D01*
X0162200Y0022270D01*
X0162200Y0022130D01*
X0162196Y0021989D01*
X0162188Y0021848D01*
X0162176Y0021708D01*
X0162160Y0021568D01*
X0162140Y0021428D01*
X0162116Y0021289D01*
X0162089Y0021151D01*
X0162057Y0021014D01*
X0162022Y0020878D01*
X0161983Y0020742D01*
X0161940Y0020608D01*
X0161893Y0020475D01*
X0161843Y0020344D01*
X0161788Y0020214D01*
X0161731Y0020085D01*
X0161669Y0019958D01*
X0161604Y0019833D01*
X0161536Y0019710D01*
X0161464Y0019589D01*
X0161389Y0019470D01*
X0161310Y0019353D01*
X0161228Y0019238D01*
X0161143Y0019126D01*
X0161055Y0019016D01*
X0160964Y0018909D01*
X0160870Y0018804D01*
X0160773Y0018702D01*
X0160673Y0018603D01*
X0160570Y0018506D01*
X0160465Y0018413D01*
X0160357Y0018322D01*
X0160246Y0018235D01*
X0160133Y0018151D01*
X0160018Y0018070D01*
X0159901Y0017992D01*
X0159781Y0017918D01*
X0159659Y0017847D01*
X0159536Y0017779D01*
X0159410Y0017715D01*
X0159283Y0017655D01*
X0159154Y0017598D01*
X0159024Y0017544D01*
X0158892Y0017495D01*
X0158758Y0017449D01*
X0158624Y0017407D01*
X0158488Y0017369D01*
X0158352Y0017334D01*
X0158214Y0017304D01*
X0158076Y0017277D01*
X0157937Y0017255D01*
X0157797Y0017236D01*
X0157657Y0017221D01*
X0157517Y0017210D01*
X0157376Y0017203D01*
X0157235Y0017200D01*
X0157094Y0017201D01*
X0156954Y0017206D01*
X0156813Y0017215D01*
X0156673Y0017228D01*
X0156533Y0017245D01*
X0156393Y0017265D01*
X0156255Y0017290D01*
X0156117Y0017319D01*
X0155980Y0017351D01*
X0155844Y0017387D01*
X0155709Y0017428D01*
X0155575Y0017472D01*
X0155442Y0017519D01*
X0155311Y0017571D01*
X0155181Y0017626D01*
X0155053Y0017684D01*
X0154927Y0017747D01*
X0154802Y0017812D01*
X0154680Y0017882D01*
X0154559Y0017954D01*
X0154440Y0018030D01*
X0154324Y0018110D01*
X0154210Y0018193D01*
X0154098Y0018278D01*
X0153989Y0018367D01*
X0153882Y0018459D01*
X0153778Y0018554D01*
X0153677Y0018652D01*
X0153578Y0018753D01*
X0153483Y0018856D01*
X0153390Y0018962D01*
X0153300Y0019071D01*
X0153214Y0019182D01*
X0153130Y0019295D01*
X0153050Y0019411D01*
X0152973Y0019529D01*
X0152900Y0019649D01*
X0152829Y0019772D01*
X0152763Y0019896D01*
X0152700Y0020022D01*
X0152640Y0020149D01*
X0152584Y0020278D01*
X0152532Y0020409D01*
X0152483Y0020541D01*
X0152438Y0020675D01*
X0152397Y0020810D01*
X0152360Y0020946D01*
X0152326Y0021082D01*
X0152297Y0021220D01*
X0152271Y0021359D01*
X0152250Y0021498D01*
X0152232Y0021638D01*
X0152218Y0021778D01*
X0152208Y0021918D01*
X0152202Y0022059D01*
X0152200Y0022200D01*
X0149700Y0017200D02*
X0149700Y0014700D01*
X0152200Y0014700D01*
X0162200Y0014700D02*
X0164700Y0014700D01*
X0164700Y0017200D01*
X0164700Y0027200D02*
X0164700Y0029700D01*
X0162200Y0029700D01*
X0162200Y0082200D02*
X0164700Y0082200D01*
X0164700Y0084700D01*
X0152200Y0089700D02*
X0152202Y0089841D01*
X0152208Y0089982D01*
X0152218Y0090122D01*
X0152232Y0090262D01*
X0152250Y0090402D01*
X0152271Y0090541D01*
X0152297Y0090680D01*
X0152326Y0090818D01*
X0152360Y0090954D01*
X0152397Y0091090D01*
X0152438Y0091225D01*
X0152483Y0091359D01*
X0152532Y0091491D01*
X0152584Y0091622D01*
X0152640Y0091751D01*
X0152700Y0091878D01*
X0152763Y0092004D01*
X0152829Y0092128D01*
X0152900Y0092251D01*
X0152973Y0092371D01*
X0153050Y0092489D01*
X0153130Y0092605D01*
X0153214Y0092718D01*
X0153300Y0092829D01*
X0153390Y0092938D01*
X0153483Y0093044D01*
X0153578Y0093147D01*
X0153677Y0093248D01*
X0153778Y0093346D01*
X0153882Y0093441D01*
X0153989Y0093533D01*
X0154098Y0093622D01*
X0154210Y0093707D01*
X0154324Y0093790D01*
X0154440Y0093870D01*
X0154559Y0093946D01*
X0154680Y0094018D01*
X0154802Y0094088D01*
X0154927Y0094153D01*
X0155053Y0094216D01*
X0155181Y0094274D01*
X0155311Y0094329D01*
X0155442Y0094381D01*
X0155575Y0094428D01*
X0155709Y0094472D01*
X0155844Y0094513D01*
X0155980Y0094549D01*
X0156117Y0094581D01*
X0156255Y0094610D01*
X0156393Y0094635D01*
X0156533Y0094655D01*
X0156673Y0094672D01*
X0156813Y0094685D01*
X0156954Y0094694D01*
X0157094Y0094699D01*
X0157235Y0094700D01*
X0157376Y0094697D01*
X0157517Y0094690D01*
X0157657Y0094679D01*
X0157797Y0094664D01*
X0157937Y0094645D01*
X0158076Y0094623D01*
X0158214Y0094596D01*
X0158352Y0094566D01*
X0158488Y0094531D01*
X0158624Y0094493D01*
X0158758Y0094451D01*
X0158892Y0094405D01*
X0159024Y0094356D01*
X0159154Y0094302D01*
X0159283Y0094245D01*
X0159410Y0094185D01*
X0159536Y0094121D01*
X0159659Y0094053D01*
X0159781Y0093982D01*
X0159901Y0093908D01*
X0160018Y0093830D01*
X0160133Y0093749D01*
X0160246Y0093665D01*
X0160357Y0093578D01*
X0160465Y0093487D01*
X0160570Y0093394D01*
X0160673Y0093297D01*
X0160773Y0093198D01*
X0160870Y0093096D01*
X0160964Y0092991D01*
X0161055Y0092884D01*
X0161143Y0092774D01*
X0161228Y0092662D01*
X0161310Y0092547D01*
X0161389Y0092430D01*
X0161464Y0092311D01*
X0161536Y0092190D01*
X0161604Y0092067D01*
X0161669Y0091942D01*
X0161731Y0091815D01*
X0161788Y0091686D01*
X0161843Y0091556D01*
X0161893Y0091425D01*
X0161940Y0091292D01*
X0161983Y0091158D01*
X0162022Y0091022D01*
X0162057Y0090886D01*
X0162089Y0090749D01*
X0162116Y0090611D01*
X0162140Y0090472D01*
X0162160Y0090332D01*
X0162176Y0090192D01*
X0162188Y0090052D01*
X0162196Y0089911D01*
X0162200Y0089770D01*
X0162200Y0089630D01*
X0162196Y0089489D01*
X0162188Y0089348D01*
X0162176Y0089208D01*
X0162160Y0089068D01*
X0162140Y0088928D01*
X0162116Y0088789D01*
X0162089Y0088651D01*
X0162057Y0088514D01*
X0162022Y0088378D01*
X0161983Y0088242D01*
X0161940Y0088108D01*
X0161893Y0087975D01*
X0161843Y0087844D01*
X0161788Y0087714D01*
X0161731Y0087585D01*
X0161669Y0087458D01*
X0161604Y0087333D01*
X0161536Y0087210D01*
X0161464Y0087089D01*
X0161389Y0086970D01*
X0161310Y0086853D01*
X0161228Y0086738D01*
X0161143Y0086626D01*
X0161055Y0086516D01*
X0160964Y0086409D01*
X0160870Y0086304D01*
X0160773Y0086202D01*
X0160673Y0086103D01*
X0160570Y0086006D01*
X0160465Y0085913D01*
X0160357Y0085822D01*
X0160246Y0085735D01*
X0160133Y0085651D01*
X0160018Y0085570D01*
X0159901Y0085492D01*
X0159781Y0085418D01*
X0159659Y0085347D01*
X0159536Y0085279D01*
X0159410Y0085215D01*
X0159283Y0085155D01*
X0159154Y0085098D01*
X0159024Y0085044D01*
X0158892Y0084995D01*
X0158758Y0084949D01*
X0158624Y0084907D01*
X0158488Y0084869D01*
X0158352Y0084834D01*
X0158214Y0084804D01*
X0158076Y0084777D01*
X0157937Y0084755D01*
X0157797Y0084736D01*
X0157657Y0084721D01*
X0157517Y0084710D01*
X0157376Y0084703D01*
X0157235Y0084700D01*
X0157094Y0084701D01*
X0156954Y0084706D01*
X0156813Y0084715D01*
X0156673Y0084728D01*
X0156533Y0084745D01*
X0156393Y0084765D01*
X0156255Y0084790D01*
X0156117Y0084819D01*
X0155980Y0084851D01*
X0155844Y0084887D01*
X0155709Y0084928D01*
X0155575Y0084972D01*
X0155442Y0085019D01*
X0155311Y0085071D01*
X0155181Y0085126D01*
X0155053Y0085184D01*
X0154927Y0085247D01*
X0154802Y0085312D01*
X0154680Y0085382D01*
X0154559Y0085454D01*
X0154440Y0085530D01*
X0154324Y0085610D01*
X0154210Y0085693D01*
X0154098Y0085778D01*
X0153989Y0085867D01*
X0153882Y0085959D01*
X0153778Y0086054D01*
X0153677Y0086152D01*
X0153578Y0086253D01*
X0153483Y0086356D01*
X0153390Y0086462D01*
X0153300Y0086571D01*
X0153214Y0086682D01*
X0153130Y0086795D01*
X0153050Y0086911D01*
X0152973Y0087029D01*
X0152900Y0087149D01*
X0152829Y0087272D01*
X0152763Y0087396D01*
X0152700Y0087522D01*
X0152640Y0087649D01*
X0152584Y0087778D01*
X0152532Y0087909D01*
X0152483Y0088041D01*
X0152438Y0088175D01*
X0152397Y0088310D01*
X0152360Y0088446D01*
X0152326Y0088582D01*
X0152297Y0088720D01*
X0152271Y0088859D01*
X0152250Y0088998D01*
X0152232Y0089138D01*
X0152218Y0089278D01*
X0152208Y0089418D01*
X0152202Y0089559D01*
X0152200Y0089700D01*
X0149700Y0094700D02*
X0149700Y0097200D01*
X0152200Y0097200D01*
X0162200Y0097200D02*
X0164700Y0097200D01*
X0164700Y0094700D01*
X0149700Y0084700D02*
X0149700Y0082200D01*
X0152200Y0082200D01*
X0139401Y0090200D02*
X0139401Y0099200D01*
X0109999Y0099200D02*
X0109999Y0090200D01*
X0059999Y0046700D02*
X0059999Y0037700D01*
X0046901Y0037700D02*
X0046901Y0046700D01*
X0017499Y0046700D02*
X0017499Y0037700D01*
X0017200Y0029700D02*
X0014700Y0029700D01*
X0014700Y0027200D01*
X0017200Y0022200D02*
X0017202Y0022341D01*
X0017208Y0022482D01*
X0017218Y0022622D01*
X0017232Y0022762D01*
X0017250Y0022902D01*
X0017271Y0023041D01*
X0017297Y0023180D01*
X0017326Y0023318D01*
X0017360Y0023454D01*
X0017397Y0023590D01*
X0017438Y0023725D01*
X0017483Y0023859D01*
X0017532Y0023991D01*
X0017584Y0024122D01*
X0017640Y0024251D01*
X0017700Y0024378D01*
X0017763Y0024504D01*
X0017829Y0024628D01*
X0017900Y0024751D01*
X0017973Y0024871D01*
X0018050Y0024989D01*
X0018130Y0025105D01*
X0018214Y0025218D01*
X0018300Y0025329D01*
X0018390Y0025438D01*
X0018483Y0025544D01*
X0018578Y0025647D01*
X0018677Y0025748D01*
X0018778Y0025846D01*
X0018882Y0025941D01*
X0018989Y0026033D01*
X0019098Y0026122D01*
X0019210Y0026207D01*
X0019324Y0026290D01*
X0019440Y0026370D01*
X0019559Y0026446D01*
X0019680Y0026518D01*
X0019802Y0026588D01*
X0019927Y0026653D01*
X0020053Y0026716D01*
X0020181Y0026774D01*
X0020311Y0026829D01*
X0020442Y0026881D01*
X0020575Y0026928D01*
X0020709Y0026972D01*
X0020844Y0027013D01*
X0020980Y0027049D01*
X0021117Y0027081D01*
X0021255Y0027110D01*
X0021393Y0027135D01*
X0021533Y0027155D01*
X0021673Y0027172D01*
X0021813Y0027185D01*
X0021954Y0027194D01*
X0022094Y0027199D01*
X0022235Y0027200D01*
X0022376Y0027197D01*
X0022517Y0027190D01*
X0022657Y0027179D01*
X0022797Y0027164D01*
X0022937Y0027145D01*
X0023076Y0027123D01*
X0023214Y0027096D01*
X0023352Y0027066D01*
X0023488Y0027031D01*
X0023624Y0026993D01*
X0023758Y0026951D01*
X0023892Y0026905D01*
X0024024Y0026856D01*
X0024154Y0026802D01*
X0024283Y0026745D01*
X0024410Y0026685D01*
X0024536Y0026621D01*
X0024659Y0026553D01*
X0024781Y0026482D01*
X0024901Y0026408D01*
X0025018Y0026330D01*
X0025133Y0026249D01*
X0025246Y0026165D01*
X0025357Y0026078D01*
X0025465Y0025987D01*
X0025570Y0025894D01*
X0025673Y0025797D01*
X0025773Y0025698D01*
X0025870Y0025596D01*
X0025964Y0025491D01*
X0026055Y0025384D01*
X0026143Y0025274D01*
X0026228Y0025162D01*
X0026310Y0025047D01*
X0026389Y0024930D01*
X0026464Y0024811D01*
X0026536Y0024690D01*
X0026604Y0024567D01*
X0026669Y0024442D01*
X0026731Y0024315D01*
X0026788Y0024186D01*
X0026843Y0024056D01*
X0026893Y0023925D01*
X0026940Y0023792D01*
X0026983Y0023658D01*
X0027022Y0023522D01*
X0027057Y0023386D01*
X0027089Y0023249D01*
X0027116Y0023111D01*
X0027140Y0022972D01*
X0027160Y0022832D01*
X0027176Y0022692D01*
X0027188Y0022552D01*
X0027196Y0022411D01*
X0027200Y0022270D01*
X0027200Y0022130D01*
X0027196Y0021989D01*
X0027188Y0021848D01*
X0027176Y0021708D01*
X0027160Y0021568D01*
X0027140Y0021428D01*
X0027116Y0021289D01*
X0027089Y0021151D01*
X0027057Y0021014D01*
X0027022Y0020878D01*
X0026983Y0020742D01*
X0026940Y0020608D01*
X0026893Y0020475D01*
X0026843Y0020344D01*
X0026788Y0020214D01*
X0026731Y0020085D01*
X0026669Y0019958D01*
X0026604Y0019833D01*
X0026536Y0019710D01*
X0026464Y0019589D01*
X0026389Y0019470D01*
X0026310Y0019353D01*
X0026228Y0019238D01*
X0026143Y0019126D01*
X0026055Y0019016D01*
X0025964Y0018909D01*
X0025870Y0018804D01*
X0025773Y0018702D01*
X0025673Y0018603D01*
X0025570Y0018506D01*
X0025465Y0018413D01*
X0025357Y0018322D01*
X0025246Y0018235D01*
X0025133Y0018151D01*
X0025018Y0018070D01*
X0024901Y0017992D01*
X0024781Y0017918D01*
X0024659Y0017847D01*
X0024536Y0017779D01*
X0024410Y0017715D01*
X0024283Y0017655D01*
X0024154Y0017598D01*
X0024024Y0017544D01*
X0023892Y0017495D01*
X0023758Y0017449D01*
X0023624Y0017407D01*
X0023488Y0017369D01*
X0023352Y0017334D01*
X0023214Y0017304D01*
X0023076Y0017277D01*
X0022937Y0017255D01*
X0022797Y0017236D01*
X0022657Y0017221D01*
X0022517Y0017210D01*
X0022376Y0017203D01*
X0022235Y0017200D01*
X0022094Y0017201D01*
X0021954Y0017206D01*
X0021813Y0017215D01*
X0021673Y0017228D01*
X0021533Y0017245D01*
X0021393Y0017265D01*
X0021255Y0017290D01*
X0021117Y0017319D01*
X0020980Y0017351D01*
X0020844Y0017387D01*
X0020709Y0017428D01*
X0020575Y0017472D01*
X0020442Y0017519D01*
X0020311Y0017571D01*
X0020181Y0017626D01*
X0020053Y0017684D01*
X0019927Y0017747D01*
X0019802Y0017812D01*
X0019680Y0017882D01*
X0019559Y0017954D01*
X0019440Y0018030D01*
X0019324Y0018110D01*
X0019210Y0018193D01*
X0019098Y0018278D01*
X0018989Y0018367D01*
X0018882Y0018459D01*
X0018778Y0018554D01*
X0018677Y0018652D01*
X0018578Y0018753D01*
X0018483Y0018856D01*
X0018390Y0018962D01*
X0018300Y0019071D01*
X0018214Y0019182D01*
X0018130Y0019295D01*
X0018050Y0019411D01*
X0017973Y0019529D01*
X0017900Y0019649D01*
X0017829Y0019772D01*
X0017763Y0019896D01*
X0017700Y0020022D01*
X0017640Y0020149D01*
X0017584Y0020278D01*
X0017532Y0020409D01*
X0017483Y0020541D01*
X0017438Y0020675D01*
X0017397Y0020810D01*
X0017360Y0020946D01*
X0017326Y0021082D01*
X0017297Y0021220D01*
X0017271Y0021359D01*
X0017250Y0021498D01*
X0017232Y0021638D01*
X0017218Y0021778D01*
X0017208Y0021918D01*
X0017202Y0022059D01*
X0017200Y0022200D01*
X0014700Y0017200D02*
X0014700Y0014700D01*
X0017200Y0014700D01*
X0027200Y0014700D02*
X0029700Y0014700D01*
X0029700Y0017200D01*
X0029700Y0027200D02*
X0029700Y0029700D01*
X0027200Y0029700D01*
X0027200Y0082200D02*
X0029700Y0082200D01*
X0029700Y0084700D01*
X0017200Y0089700D02*
X0017202Y0089841D01*
X0017208Y0089982D01*
X0017218Y0090122D01*
X0017232Y0090262D01*
X0017250Y0090402D01*
X0017271Y0090541D01*
X0017297Y0090680D01*
X0017326Y0090818D01*
X0017360Y0090954D01*
X0017397Y0091090D01*
X0017438Y0091225D01*
X0017483Y0091359D01*
X0017532Y0091491D01*
X0017584Y0091622D01*
X0017640Y0091751D01*
X0017700Y0091878D01*
X0017763Y0092004D01*
X0017829Y0092128D01*
X0017900Y0092251D01*
X0017973Y0092371D01*
X0018050Y0092489D01*
X0018130Y0092605D01*
X0018214Y0092718D01*
X0018300Y0092829D01*
X0018390Y0092938D01*
X0018483Y0093044D01*
X0018578Y0093147D01*
X0018677Y0093248D01*
X0018778Y0093346D01*
X0018882Y0093441D01*
X0018989Y0093533D01*
X0019098Y0093622D01*
X0019210Y0093707D01*
X0019324Y0093790D01*
X0019440Y0093870D01*
X0019559Y0093946D01*
X0019680Y0094018D01*
X0019802Y0094088D01*
X0019927Y0094153D01*
X0020053Y0094216D01*
X0020181Y0094274D01*
X0020311Y0094329D01*
X0020442Y0094381D01*
X0020575Y0094428D01*
X0020709Y0094472D01*
X0020844Y0094513D01*
X0020980Y0094549D01*
X0021117Y0094581D01*
X0021255Y0094610D01*
X0021393Y0094635D01*
X0021533Y0094655D01*
X0021673Y0094672D01*
X0021813Y0094685D01*
X0021954Y0094694D01*
X0022094Y0094699D01*
X0022235Y0094700D01*
X0022376Y0094697D01*
X0022517Y0094690D01*
X0022657Y0094679D01*
X0022797Y0094664D01*
X0022937Y0094645D01*
X0023076Y0094623D01*
X0023214Y0094596D01*
X0023352Y0094566D01*
X0023488Y0094531D01*
X0023624Y0094493D01*
X0023758Y0094451D01*
X0023892Y0094405D01*
X0024024Y0094356D01*
X0024154Y0094302D01*
X0024283Y0094245D01*
X0024410Y0094185D01*
X0024536Y0094121D01*
X0024659Y0094053D01*
X0024781Y0093982D01*
X0024901Y0093908D01*
X0025018Y0093830D01*
X0025133Y0093749D01*
X0025246Y0093665D01*
X0025357Y0093578D01*
X0025465Y0093487D01*
X0025570Y0093394D01*
X0025673Y0093297D01*
X0025773Y0093198D01*
X0025870Y0093096D01*
X0025964Y0092991D01*
X0026055Y0092884D01*
X0026143Y0092774D01*
X0026228Y0092662D01*
X0026310Y0092547D01*
X0026389Y0092430D01*
X0026464Y0092311D01*
X0026536Y0092190D01*
X0026604Y0092067D01*
X0026669Y0091942D01*
X0026731Y0091815D01*
X0026788Y0091686D01*
X0026843Y0091556D01*
X0026893Y0091425D01*
X0026940Y0091292D01*
X0026983Y0091158D01*
X0027022Y0091022D01*
X0027057Y0090886D01*
X0027089Y0090749D01*
X0027116Y0090611D01*
X0027140Y0090472D01*
X0027160Y0090332D01*
X0027176Y0090192D01*
X0027188Y0090052D01*
X0027196Y0089911D01*
X0027200Y0089770D01*
X0027200Y0089630D01*
X0027196Y0089489D01*
X0027188Y0089348D01*
X0027176Y0089208D01*
X0027160Y0089068D01*
X0027140Y0088928D01*
X0027116Y0088789D01*
X0027089Y0088651D01*
X0027057Y0088514D01*
X0027022Y0088378D01*
X0026983Y0088242D01*
X0026940Y0088108D01*
X0026893Y0087975D01*
X0026843Y0087844D01*
X0026788Y0087714D01*
X0026731Y0087585D01*
X0026669Y0087458D01*
X0026604Y0087333D01*
X0026536Y0087210D01*
X0026464Y0087089D01*
X0026389Y0086970D01*
X0026310Y0086853D01*
X0026228Y0086738D01*
X0026143Y0086626D01*
X0026055Y0086516D01*
X0025964Y0086409D01*
X0025870Y0086304D01*
X0025773Y0086202D01*
X0025673Y0086103D01*
X0025570Y0086006D01*
X0025465Y0085913D01*
X0025357Y0085822D01*
X0025246Y0085735D01*
X0025133Y0085651D01*
X0025018Y0085570D01*
X0024901Y0085492D01*
X0024781Y0085418D01*
X0024659Y0085347D01*
X0024536Y0085279D01*
X0024410Y0085215D01*
X0024283Y0085155D01*
X0024154Y0085098D01*
X0024024Y0085044D01*
X0023892Y0084995D01*
X0023758Y0084949D01*
X0023624Y0084907D01*
X0023488Y0084869D01*
X0023352Y0084834D01*
X0023214Y0084804D01*
X0023076Y0084777D01*
X0022937Y0084755D01*
X0022797Y0084736D01*
X0022657Y0084721D01*
X0022517Y0084710D01*
X0022376Y0084703D01*
X0022235Y0084700D01*
X0022094Y0084701D01*
X0021954Y0084706D01*
X0021813Y0084715D01*
X0021673Y0084728D01*
X0021533Y0084745D01*
X0021393Y0084765D01*
X0021255Y0084790D01*
X0021117Y0084819D01*
X0020980Y0084851D01*
X0020844Y0084887D01*
X0020709Y0084928D01*
X0020575Y0084972D01*
X0020442Y0085019D01*
X0020311Y0085071D01*
X0020181Y0085126D01*
X0020053Y0085184D01*
X0019927Y0085247D01*
X0019802Y0085312D01*
X0019680Y0085382D01*
X0019559Y0085454D01*
X0019440Y0085530D01*
X0019324Y0085610D01*
X0019210Y0085693D01*
X0019098Y0085778D01*
X0018989Y0085867D01*
X0018882Y0085959D01*
X0018778Y0086054D01*
X0018677Y0086152D01*
X0018578Y0086253D01*
X0018483Y0086356D01*
X0018390Y0086462D01*
X0018300Y0086571D01*
X0018214Y0086682D01*
X0018130Y0086795D01*
X0018050Y0086911D01*
X0017973Y0087029D01*
X0017900Y0087149D01*
X0017829Y0087272D01*
X0017763Y0087396D01*
X0017700Y0087522D01*
X0017640Y0087649D01*
X0017584Y0087778D01*
X0017532Y0087909D01*
X0017483Y0088041D01*
X0017438Y0088175D01*
X0017397Y0088310D01*
X0017360Y0088446D01*
X0017326Y0088582D01*
X0017297Y0088720D01*
X0017271Y0088859D01*
X0017250Y0088998D01*
X0017232Y0089138D01*
X0017218Y0089278D01*
X0017208Y0089418D01*
X0017202Y0089559D01*
X0017200Y0089700D01*
X0014700Y0094700D02*
X0014700Y0097200D01*
X0017200Y0097200D01*
X0027200Y0097200D02*
X0029700Y0097200D01*
X0029700Y0094700D01*
X0014700Y0084700D02*
X0014700Y0082200D01*
X0017200Y0082200D01*
D19*
X0104150Y0057200D03*
X0115250Y0057200D03*
X0115250Y0034700D03*
X0104150Y0034700D03*
X0104150Y0022200D03*
X0115250Y0022200D03*
D20*
X0126977Y0069696D03*
X0137423Y0069704D03*
X0114923Y0074704D03*
X0104477Y0074696D03*
M02*
